<?xml version="1.0" standalone="no"?>
<!DOCTYPE svg PUBLIC "-//W3C//DTD SVG 1.1//EN" "http://www.w3.org/Graphics/SVG/1.1/DTD/svg11.dtd" >
<svg xmlns="http://www.w3.org/2000/svg" xmlns:xlink="http://www.w3.org/1999/xlink" version="1.1">
<metadata></metadata>
<defs>
<font id="mondabold" horiz-adv-x="1420" >
<font-face units-per-em="2048" ascent="1638" descent="-410" />
<missing-glyph horiz-adv-x="516" />
<glyph unicode="&#xfb01;" horiz-adv-x="1281" d="M86 901v173h143v51q0 191 85.5 291t276.5 100h126l13 -189h-90q-88 0 -113.5 -36t-25.5 -105v-112h646v-1074h-272v901h-374v-901h-272v901h-143zM873 1250v265h275v-265h-275z" />
<glyph unicode="&#xfb02;" horiz-adv-x="1419" d="M86 901v173h143v51q0 191 85.5 291t276.5 100h382v-1h174v-1158q0 -88 41.5 -127.5t150.5 -39.5h34l-21 -202h-114q-179 0 -271 81.5t-92 283.5v974h-235q-88 0 -113.5 -36t-25.5 -105v-112h214v-173h-214v-901h-272v901h-143z" />
<glyph horiz-adv-x="0" />
<glyph horiz-adv-x="682" />
<glyph unicode="&#xd;" horiz-adv-x="600" />
<glyph unicode=" "  horiz-adv-x="516" />
<glyph unicode="&#x09;" horiz-adv-x="516" />
<glyph unicode="&#xa0;" horiz-adv-x="516" />
<glyph unicode="!" horiz-adv-x="648" d="M177 0v266h280v-266h-280zM197 1477h259q0 -25 -7.5 -117t-21 -236t-31.5 -326t-40 -388h-76q-17 197 -32 377.5t-26.5 326.5t-18 241.5t-6.5 121.5z" />
<glyph unicode="&#x22;" horiz-adv-x="1024" d="M198 1516h253l-55 -644h-119zM572 1516h254l-77 -644h-119z" />
<glyph unicode="#" horiz-adv-x="1372" d="M104 478v140h230l50 278h-256v140h280l79 441h198l-76 -441h259l79 441h198l-76 -441h199v-140h-224l-48 -278h248v-140h-273l-82 -478h-206l86 478h-257l-83 -478h-206l86 478h-205zM536 618h257l50 278h-259z" />
<glyph unicode="$" horiz-adv-x="1281" d="M120 108l102 217q73 -39 170.5 -72t211.5 -43v423l-162 48q-120 36 -186.5 96.5t-93 141.5t-26.5 175q0 130 61 218t167 134.5t240 53.5v192h106v-192q255 -11 433 -114l-84 -209q-76 36 -163.5 61t-185.5 29v-382l160 -48q149 -45 224 -143t75 -272q0 -122 -48 -222 t-149 -160.5t-262 -65.5v-191h-106v194q-132 9 -260 43t-224 88zM428 1104q0 -73 36.5 -114t139.5 -73v348q-82 -9 -129 -45.5t-47 -115.5zM710 208q117 6 152.5 62t35.5 142q0 39 -13 73t-53.5 63t-121.5 54v-394z" />
<glyph unicode="%" horiz-adv-x="1808" d="M128 1043v53q0 175 63.5 273t236.5 98t239 -97.5t66 -272.5v-54q0 -172 -66 -275.5t-239 -103.5q-115 0 -180.5 47.5t-92.5 132.5t-27 199zM288 1029q0 -67 8.5 -120.5t38.5 -84t93 -30.5q64 0 94 30.5t39 84t9 120.5v87q0 66 -8 115.5t-37.5 77.5t-96.5 28 q-65 0 -95 -27.5t-37.5 -77t-7.5 -114.5v-89zM546 0l543 1446h173l-538 -1446h-178zM1075 360v53q0 175 64 273t237 98t238.5 -97.5t65.5 -272.5v-54q0 -172 -65.5 -275.5t-238.5 -103.5q-115 0 -180.5 47t-93 132.5t-27.5 199.5zM1235 346q0 -67 8.5 -120.5t38.5 -84 t94 -30.5q63 0 93 30.5t39 84t9 120.5v87q0 66 -7.5 116t-37.5 77.5t-96 27.5t-95.5 -27.5t-37.5 -77t-8 -114.5v-89z" />
<glyph unicode="&#x26;" horiz-adv-x="1526" d="M148 460q0 151 69 236.5t215 128.5q-79 73 -127 149t-48 191q0 173 111.5 257t382.5 84q175 0 282 -29t156 -97.5t49 -186.5v-83h-238v42q0 69 -21 101.5t-73.5 42t-146.5 9.5q-101 0 -152.5 -19t-68.5 -54t-17 -83q0 -39 9.5 -66t34.5 -56.5t72 -75.5l458 -451 q1 14 1 31v291h235v-273q0 -65 -6 -130.5t-20 -109.5l169 -159l-160 -173l-128 126q-56 -64 -159 -97t-293 -33q-221 0 -349.5 48.5t-182.5 155.5t-54 283zM420 466q0 -103 25 -162t93 -84t196 -25q55 0 107.5 4t93 22t58.5 58l-434 425q-68 -18 -97 -50.5t-35.5 -79.5 t-6.5 -108z" />
<glyph unicode="'" horiz-adv-x="649" d="M198 1516h253l-55 -644h-119z" />
<glyph unicode="(" horiz-adv-x="946" d="M208 420v566q0 178 52.5 310.5t177.5 206t344 73.5v-217q-103 0 -168 -28.5t-96 -101.5t-31 -209v-630q0 -135 30.5 -207t95.5 -99.5t169 -27.5v-216q-295 0 -434.5 141t-139.5 439z" />
<glyph unicode=")" horiz-adv-x="946" d="M181 57q166 0 230.5 74t64.5 264v630q0 127 -27.5 199.5t-91.5 103.5t-176 31v217q295 0 434 -140.5t139 -439.5v-566q0 -302 -139.5 -446t-433.5 -144v217z" />
<glyph unicode="*" horiz-adv-x="998" d="M86 941l290 117l-280 142l95 153l247 -190l-28 313h178l-30 -325l273 174l81 -161l-291 -117l280 -142l-95 -153l-247 190l29 -313h-178l29 325l-273 -174z" />
<glyph unicode="+" horiz-adv-x="966" d="M132 487v162h269v319h164v-319h269v-162h-269v-331h-164v331h-269z" />
<glyph unicode="," horiz-adv-x="768" d="M223 0v276h322v-223q0 -100 -36 -190.5t-82.5 -157t-77.5 -94.5l-107 46q26 29 60 83.5t60 122.5t26 137h-165z" />
<glyph unicode="-" horiz-adv-x="868" d="M132 474v188h604v-188h-604z" />
<glyph unicode="." horiz-adv-x="768" d="M235 0v284h298v-284h-298z" />
<glyph unicode="/" horiz-adv-x="1024" d="M106 0l569 1516h243l-569 -1516h-243z" />
<glyph unicode="0" d="M150 498v473q0 136 57.5 257.5t183 198t328.5 76.5q150 0 255 -45t170.5 -121t95.5 -172t30 -198v-465q0 -99 -31 -193.5t-97.5 -170t-171 -120.5t-251.5 -45q-200 0 -326 75.5t-184.5 196t-58.5 253.5zM450 493q0 -64 23.5 -132.5t82 -115.5t163.5 -47q106 0 163 47 t78.5 115.5t21.5 132.5v486q0 65 -20.5 134t-77 116.5t-165.5 47.5q-110 0 -168 -47.5t-79.5 -116.5t-21.5 -134v-486z" />
<glyph unicode="1" d="M199 1404l528 72h205v-1256h379v-220h-1108v220h432v1011l-409 -54z" />
<glyph unicode="2" d="M162 992q0 264 126.5 387.5t425.5 123.5q190 0 306 -58.5t169.5 -157t53.5 -220.5q0 -163 -78 -283.5t-229 -249.5l-358 -307h640v-227h-973l-36 226l547 493q78 70 121 124t60.5 106.5t17.5 115.5q0 103 -52 158.5t-176 55.5q-142 0 -201 -63t-59 -224h-305z" />
<glyph unicode="3" d="M182 436h268q0 -139 64.5 -188.5t208.5 -49.5q134 0 194.5 61.5t60.5 179.5q0 91 -27 143t-97.5 74t-199.5 22v199q144 0 211 22.5t86 69t19 118.5q0 92 -54 142t-199 50q-150 0 -206 -53.5t-56 -192.5h-267q0 177 65 280t183 146.5t278 43.5q158 0 278 -47t187.5 -137 t67.5 -218q0 -70 -16.5 -136t-64.5 -115.5t-143 -69.5q134 -36 185.5 -132.5t51.5 -221.5q0 -129 -54.5 -231.5t-173 -162t-312.5 -59.5q-283 0 -410.5 123t-127.5 340z" />
<glyph unicode="4" d="M170 282v249l449 945h305l-430 -948h345v334h237v-334h240v-246h-240v-282h-237v282h-669z" />
<glyph unicode="5" d="M195 122l79 199q205 -122 436 -122q134 0 212.5 63.5t78.5 188.5q0 95 -35 149.5t-92.5 77t-126.5 22.5q-170 0 -286 -103l-214 107l81 772h842v-246h-618l-40 -360q56 42 125.5 61t166.5 19q139 0 247 -57t170 -168.5t62 -274.5q0 -136 -67 -243.5t-191.5 -169 t-298.5 -61.5q-104 0 -207.5 21.5t-188.5 55t-135 69.5z" />
<glyph unicode="6" d="M214 452q0 101 17 191t55 184.5t102 206.5l251 443h320l-319 -568q74 20 164 20q172 0 276 -63.5t151 -171.5t47 -242q0 -129 -48.5 -238t-163 -175t-311.5 -66q-196 0 -315 64.5t-172.5 173t-53.5 241.5zM492 455q0 -66 23.5 -126.5t79.5 -98.5t155 -38q100 0 154 38 t75.5 98.5t21.5 126.5q0 67 -20 127.5t-74.5 99t-158.5 38.5q-103 0 -158.5 -38.5t-76.5 -99t-21 -127.5z" />
<glyph unicode="7" d="M230 1230v246h998v-206l-554 -1270h-314l538 1230h-668z" />
<glyph unicode="8" d="M164 389q0 132 87 231.5t233 158.5q-79 36 -144.5 83.5t-105 113.5t-39.5 158q0 95 51.5 178.5t164.5 135.5t296 52q200 0 312.5 -53.5t158.5 -135.5t46 -169q0 -83 -41 -154t-106.5 -124t-139.5 -82q86 -40 158.5 -93t116 -125.5t43.5 -173.5q0 -115 -54 -208.5 t-174 -148.5t-320 -55q-199 0 -318 54.5t-172 148t-53 208.5zM438 409q0 -63 23.5 -113.5t84 -79.5t169.5 -29t166 29t77.5 79.5t20.5 113.5q0 88 -83.5 152t-195.5 110q-132 -49 -197 -117.5t-65 -144.5zM472 1122q0 -87 75.5 -141t179.5 -96q82 33 149.5 92.5t67.5 138.5 q0 44 -15 85t-64 68t-152 27q-137 0 -189 -53t-52 -121z" />
<glyph unicode="9" d="M180 1025q0 130 48.5 238.5t163 174.5t311.5 66t315.5 -64.5t172 -173t53.5 -241.5q0 -100 -17 -190.5t-55 -184.5t-102 -207l-251 -443h-320l319 568q-74 -20 -164 -20q-172 0 -276 63.5t-151 172t-47 241.5zM457 1022q0 -66 20 -127t75 -99.5t158 -38.5t158.5 38.5 t76.5 99.5t21 127q0 67 -23 127t-79.5 98t-155.5 38t-153.5 -38t-76 -98t-21.5 -127z" />
<glyph unicode=":" horiz-adv-x="769" d="M241 0v284h298v-284h-298zM241 657v284h298v-284h-298z" />
<glyph unicode=";" horiz-adv-x="769" d="M237 1v276h322v-223q0 -100 -36 -190.5t-82.5 -157t-77.5 -94.5l-107 46q26 29 60 83.5t60 122.5t26 137h-165zM241 657v284h298v-284h-298z" />
<glyph unicode="&#x3c;" horiz-adv-x="966" d="M132 477l702 -350v176l-536 260l536 260v176l-702 -350v-172z" />
<glyph unicode="=" horiz-adv-x="966" d="M132 317v162h702v-162h-702zM132 667v162h702v-162h-702z" />
<glyph unicode="&#x3e;" horiz-adv-x="966" d="M132 127v176l536 260l-536 260v176l702 -350v-172z" />
<glyph unicode="?" horiz-adv-x="1244" d="M130 962v74q0 102 16.5 187.5t66 147.5t147 96t259.5 34q161 0 259.5 -36t150.5 -97.5t70.5 -139.5t18.5 -161q0 -154 -62.5 -263t-199.5 -222l-182 -151h-229l248 309q72 90 102.5 158t30.5 158q0 55 -13 106t-57 84t-137 33q-101 0 -146.5 -28.5t-57 -80.5t-11.5 -123 v-85h-274zM413 0v266h280v-266h-280z" />
<glyph unicode="@" horiz-adv-x="1592" d="M124 246v379q0 251 162 383t483 132q311 0 457 -97.5t146 -299.5v-359q0 -73 28 -97t108 -24l-23 -200h-132q-156 0 -202 95q-112 -113 -323 -113q-110 0 -181.5 40.5t-105.5 107.5t-34 145q0 126 74 207.5t235 115.5l312 65q0 70 -25.5 117t-102 70.5t-231.5 23.5 q-217 0 -309 -82t-92 -239v-365q0 -202 122.5 -293.5t341.5 -91.5q123 0 253 32.5t238 83.5l59 -213q-115 -52 -263 -87t-287 -35q-370 0 -539 158.5t-169 440.5zM762 370q0 -57 35.5 -90.5t99.5 -33.5q78 0 140.5 23t90.5 68v227l-222 -46q-86 -18 -115 -56.5t-29 -91.5z " />
<glyph unicode="A" horiz-adv-x="1512" d="M70 0l486 1476h394l492 -1476h-315l-82 281h-580l-85 -281h-310zM535 511h442l-217 743z" />
<glyph unicode="B" horiz-adv-x="1456" d="M190 0v1476h568q207 0 320.5 -42t158 -127.5t44.5 -218.5q0 -113 -37 -184t-152 -100q102 -14 156.5 -61.5t75 -122.5t20.5 -172q0 -232 -119.5 -340t-394.5 -108h-640zM487 208h288q116 0 174.5 19t78.5 72.5t20 155.5q0 74 -14.5 129.5t-66 87t-162.5 31.5h-318v-495z M487 882h307q87 0 125.5 23t48.5 68.5t10 111.5q0 78 -18 118.5t-69 55t-152 14.5h-252v-391z" />
<glyph unicode="C" horiz-adv-x="1490" d="M160 484v493q0 112 23.5 207.5t88 166.5t187.5 110.5t321 39.5q189 0 304.5 -38.5t175.5 -108.5t81 -164.5t21 -206.5v-18l-291 -34v75q0 104 -26 160.5t-89 79t-176 22.5q-165 0 -244 -52t-79 -204v-558q0 -101 35 -154.5t106.5 -73t182.5 -19.5q113 0 176 19.5t88.5 74 t25.5 159.5v47h291v-27q0 -109 -20 -201t-79 -160.5t-175 -106.5t-308 -38q-197 0 -319.5 38.5t-187.5 107.5t-89 162t-24 202z" />
<glyph unicode="D" horiz-adv-x="1534" d="M190 0v1476h640q214 0 332 -68.5t165 -185t47 -261.5v-453q0 -147 -49.5 -262t-167.5 -180.5t-326 -65.5h-641zM487 231h318q157 0 214.5 58t57.5 181v530q0 120 -58.5 182.5t-213.5 62.5h-318v-1014z" />
<glyph unicode="E" horiz-adv-x="1294" d="M190 0v1476h967v-224h-671v-392h595v-214h-595v-422h682v-224h-978z" />
<glyph unicode="F" horiz-adv-x="1173" d="M190 0v1476h893v-227h-596v-402h555v-213h-555v-634h-297z" />
<glyph unicode="G" horiz-adv-x="1607" d="M160 484v493q0 112 28.5 207.5t100 166.5t199 110.5t325.5 39.5q192 0 311.5 -37t183 -104t87 -157t23.5 -196v-23l-292 -22v59q0 149 -73 198t-240 49q-165 0 -260 -52t-95 -204v-558q0 -101 42.5 -154.5t122 -73t190.5 -19.5q113 0 188 19.5t112.5 73t37.5 154.5v108 h-298v195h566v-757h-157l-47 170q-6 -18 -25 -50t-62 -65.5t-119 -57t-196 -23.5q-197 0 -324.5 38.5t-199 107.5t-100.5 162t-29 202z" />
<glyph unicode="H" horiz-adv-x="1624" d="M190 0v1476h298v-628h648v628h298v-1476h-298v615h-648v-615h-298z" />
<glyph unicode="I" horiz-adv-x="1148" d="M158 0v222h269v1033h-269v221h832v-221h-267v-1033h267v-222h-832z" />
<glyph unicode="J" horiz-adv-x="1222" d="M70 67l69 220q73 -34 170.5 -56t175.5 -22q140 0 197 68t57 164v809h-508v226h805v-1054q0 -213 -142 -330t-390 -117q-108 0 -222 23t-212 69z" />
<glyph unicode="K" horiz-adv-x="1448" d="M190 0v1476h297v-716l574 716h328l-528 -659l565 -817h-335l-441 646l-163 -204v-442h-297z" />
<glyph unicode="L" horiz-adv-x="1172" d="M190 0v1476h297v-1244h617v-232h-914z" />
<glyph unicode="M" horiz-adv-x="1874" d="M190 0v1476h327l417 -719l417 719h333v-1476h-278v1091l-369 -662h-199l-370 637v-1066h-278z" />
<glyph unicode="N" horiz-adv-x="1634" d="M190 0v1476h223l767 -1012v1012h264v-1476h-223l-764 997v-997h-267z" />
<glyph unicode="O" horiz-adv-x="1606" d="M160 501v462q0 112 28 209.5t99 171.5t199 115.5t328 41.5q191 0 314.5 -44t193 -120.5t97 -176.5t27.5 -212v-431q0 -109 -28 -206.5t-97.5 -173.5t-192.5 -119.5t-314 -43.5q-199 0 -327 41t-199 113t-99.5 168t-28.5 205zM458 468q0 -152 95 -206.5t261 -54.5 q168 0 251 55t83 206v535q0 149 -83.5 207t-250.5 58q-165 0 -260.5 -56.5t-95.5 -208.5v-535z" />
<glyph unicode="P" horiz-adv-x="1336" d="M190 0v1476h579q243 0 362 -110.5t119 -360.5q0 -171 -47 -280.5t-158.5 -162.5t-304.5 -53h-253v-509h-297zM487 726h300q113 0 149 65.5t36 198.5q0 116 -35 195.5t-140 79.5h-310v-539z" />
<glyph unicode="Q" horiz-adv-x="1606" d="M160 501v462q0 112 28 209.5t99 171.5t199 115.5t328 41.5q191 0 314.5 -44t193 -120.5t97 -176.5t27.5 -212v-431q0 -130 -41.5 -244t-148 -192t-302.5 -100l253 -399l-197 -116l-322 513q-212 18 -326.5 91t-158 185.5t-43.5 245.5zM458 468q0 -152 95 -206.5 t261 -54.5q168 0 251 55t83 206v535q0 149 -83.5 207t-250.5 58q-165 0 -260.5 -56.5t-95.5 -208.5v-535z" />
<glyph unicode="R" horiz-adv-x="1484" d="M190 0v1476h637q196 0 303 -55t148.5 -154t41.5 -232q0 -91 -16.5 -170.5t-63.5 -140.5t-137 -98l285 -626h-308l-259 583h-334v-583h-297zM487 795h365q76 0 115.5 30.5t54 82t14.5 114.5q0 60 -12.5 116t-49 91.5t-110.5 35.5h-377v-470z" />
<glyph unicode="S" horiz-adv-x="1281" d="M120 108l102 217q85 -45 203.5 -81.5t255.5 -36.5q91 0 137.5 26t63 72.5t16.5 106.5q0 41 -14 75.5t-57.5 64t-132.5 55.5l-252 74q-120 36 -186.5 96.5t-93 141.5t-26.5 175q0 138 67.5 228t184 134.5t261.5 44.5q146 0 269 -28t225 -87l-84 -209q-82 39 -179 65 t-205 26q-113 0 -180 -34.5t-67 -129.5q0 -76 39.5 -117t151.5 -75l251 -75q149 -45 224 -143t75 -272q0 -125 -50 -226.5t-156 -161.5t-275 -60q-151 0 -304 36t-264 98z" />
<glyph unicode="T" horiz-adv-x="1194" d="M38 1250v226h1118v-226h-411v-1250h-296v1250h-411z" />
<glyph unicode="U" horiz-adv-x="1574" d="M176 468v1009h297v-1022q0 -146 84.5 -197t238.5 -51q156 0 230.5 52t74.5 196v1022h297v-997q0 -105 -25 -197t-89.5 -161.5t-182.5 -108.5t-305 -39q-189 0 -310.5 37t-189 104t-94 157t-26.5 196z" />
<glyph unicode="V" horiz-adv-x="1484" d="M40 1476h318l390 -1193l378 1193h318l-520 -1476h-360z" />
<glyph unicode="W" horiz-adv-x="1954" d="M40 1476h288l255 -1021l259 1021h251l296 -1010l240 1010h285l-382 -1476h-249l-310 1053l-284 -1053h-266z" />
<glyph unicode="X" horiz-adv-x="1352" d="M30 0l475 764l-455 712h321l308 -482l300 482h318l-467 -718l484 -758h-321l-337 527l-308 -527h-318z" />
<glyph unicode="Y" horiz-adv-x="1304" d="M0 1476h313l346 -634l345 634h300l-499 -909v-567h-296v567z" />
<glyph unicode="Z" horiz-adv-x="1184" d="M126 0v177l620 1081h-592v218h936v-179l-618 -1087h630v-210h-976z" />
<glyph unicode="[" horiz-adv-x="842" d="M212 -89v1681h482v-161h-209v-1359h209v-161h-482z" />
<glyph unicode="\" horiz-adv-x="1024" d="M106 1516h243l569 -1516h-243z" />
<glyph unicode="]" horiz-adv-x="842" d="M146 72h210v1359h-210v161h482v-1681h-482v161z" />
<glyph unicode="^" horiz-adv-x="1257" d="M80 511l406 772h259l408 -772h-227l-304 601l-305 -601h-237z" />
<glyph unicode="_" horiz-adv-x="874" d="M0 -94h874v-188h-874v188z" />
<glyph unicode="`" horiz-adv-x="590" d="M100 1530h268l122 -365h-149z" />
<glyph unicode="a" horiz-adv-x="1174" d="M112 270q0 76 31 135t113 109.5t235 98.5q125 40 184.5 74t59.5 90q0 65 -38.5 97.5t-130.5 32.5q-102 0 -134.5 -40t-32.5 -102v-42h-255v32q0 156 104 249t324 93q161 0 255 -45t135 -126.5t41 -192.5v-425q0 -73 18.5 -95.5t68.5 -22.5l-11 -198h-57q-112 0 -174 31 t-91 96q-43 -57 -129.5 -99.5t-204.5 -42.5q-138 0 -224.5 80t-86.5 213zM377 285q0 -65 38 -96t99 -31q50 0 117 28t104 86v272q-27 -22 -86 -48.5t-127 -51.5q-89 -33 -117 -73t-28 -86z" />
<glyph unicode="b" horiz-adv-x="1206" d="M160 0v1516h272v-476q49 26 105 41.5t124 15.5q156 0 248.5 -48t132.5 -126.5t40 -169.5v-424q0 -157 -115.5 -254.5t-311.5 -97.5q-88 0 -158.5 27t-122.5 61l-27 -65h-187zM432 216q63 -48 178 -48q88 0 144 37t56 118v435q0 80 -48 114.5t-139 34.5q-73 0 -124 -20.5 t-67 -29.5v-641z" />
<glyph unicode="c" horiz-adv-x="1111" d="M124 327v430q0 161 117 250.5t328 89.5q145 0 242.5 -35.5t147.5 -122t50 -240.5l-256 -20q0 98 -14.5 146.5t-52 65t-107.5 16.5q-87 0 -135 -34t-48 -117v-434q0 -86 45 -120t138 -34q71 0 109 15t52 60.5t14 136.5h254q0 -148 -37.5 -236.5t-132 -127.5t-265.5 -39 q-183 0 -280 48.5t-133 128.5t-36 173z" />
<glyph unicode="d" horiz-adv-x="1198" d="M124 324v429q0 149 105.5 246.5t340.5 97.5q46 0 99.5 -10.5t100.5 -27.5v456h272v-1515h-184l-29 63q-52 -37 -123.5 -61.5t-154.5 -24.5q-218 0 -322.5 92.5t-104.5 254.5zM396 320q0 -82 48.5 -117t138.5 -35q56 0 106 12t81 31v659q-27 13 -73.5 25t-103.5 12 q-93 0 -145 -33t-52 -115v-439z" />
<glyph unicode="e" horiz-adv-x="1149" d="M124 336v419q0 164 124.5 253t333.5 89q248 0 352.5 -95t104.5 -257v-260h-643v-175q0 -95 49 -119.5t146 -24.5q116 0 155.5 32.5t39.5 131.5h252q0 -199 -112 -276t-340 -77q-131 0 -236 32.5t-165.5 110.5t-60.5 216zM396 651h386v126q0 60 -25.5 87.5t-69 35 t-98.5 7.5q-82 0 -137.5 -24.5t-55.5 -110.5v-121z" />
<glyph unicode="f" horiz-adv-x="770" d="M86 901v173h143v51q0 191 85.5 291t276.5 100h126l7 -189h-84q-88 0 -113.5 -43.5t-25.5 -97.5v-112h214v-173h-214v-901h-272v901h-143z" />
<glyph unicode="g" horiz-adv-x="1211" d="M124 366v385q0 92 39 171t129 127t241 48q89 0 170 -29.5t131 -70.5l23 78h202v-1087q0 -199 -113 -314t-372 -115q-100 0 -199.5 14.5t-155.5 41.5l56 185q76 -21 151.5 -31.5t137.5 -10.5q117 0 170 50.5t53 161.5v118q-48 -28 -115 -42t-129 -14q-194 0 -306.5 88 t-112.5 246zM396 356q0 -81 53.5 -112t138.5 -31q69 0 120 14t79 34v571q0 21 -53.5 48t-145.5 27q-93 0 -142.5 -34.5t-49.5 -115.5v-401z" />
<glyph unicode="h" horiz-adv-x="1254" d="M162 0v1515h272v-545q35 56 129.5 91.5t206.5 35.5q155 0 243.5 -83t88.5 -219v-795h-272v756q0 57 -28 86.5t-70 40.5t-85 11q-49 0 -98 -17.5t-82 -52t-33 -86.5v-738h-272z" />
<glyph unicode="i" horiz-adv-x="519" d="M122 1250v265h274v-265h-274zM124 0v1074h271v-1074h-271z" />
<glyph unicode="j" horiz-adv-x="650" d="M-18 -168h45q70 0 107 27.5t50.5 68.5t13.5 82v1064h273v-1077q0 -160 -87 -259.5t-287 -99.5h-101zM197 1250v265h274v-265h-274z" />
<glyph unicode="k" horiz-adv-x="1199" d="M162 0v1516h272v-914l425 472h310l-404 -463l422 -611h-297l-336 497l-120 -123v-374h-272z" />
<glyph unicode="l" horiz-adv-x="708" d="M164 353v1162h272v-1158q0 -88 41.5 -127.5t150.5 -39.5h34l-21 -202h-114q-179 0 -271 81.5t-92 283.5z" />
<glyph unicode="m" horiz-adv-x="1894" d="M160 0v1074h272v-96q16 17 56.5 45t106 51t154.5 23q104 0 179 -32t116 -101q59 59 144.5 96t212.5 37q155 0 248 -83.5t93 -219.5v-794h-272v762q0 85 -45 110t-108 25q-48 0 -99.5 -16.5t-88 -49.5t-40.5 -81v-750h-272v762q0 85 -48 110t-112 25q-49 0 -101 -17.5 t-88 -52.5t-36 -88v-739h-272z" />
<glyph unicode="n" horiz-adv-x="1254" d="M160 0v1074h272v-95q62 53 137 86t192 33q121 0 196 -44.5t110 -118.5t35 -165v-770h-272v755q0 57 -29.5 87t-73 41t-86.5 11q-49 0 -97 -18t-80 -53t-32 -88v-735h-272z" />
<glyph unicode="o" horiz-adv-x="1180" d="M124 325v423q0 164 122.5 256.5t343.5 92.5q220 0 343 -92.5t123 -256.5v-423q0 -106 -44 -184.5t-145.5 -121t-276.5 -42.5q-254 0 -360 94t-106 254zM396 313q0 -82 50 -114.5t144 -32.5q87 0 140.5 32.5t53.5 114.5v447q0 82 -51 114.5t-143 32.5q-88 0 -141 -32.5 t-53 -114.5v-447z" />
<glyph unicode="p" horiz-adv-x="1202" d="M160 -410v1484h190l27 -70q53 39 129 66t171 27q189 0 295 -95.5t106 -250.5v-425q0 -92 -47 -171.5t-144.5 -128.5t-249.5 -49q-64 0 -115 11.5t-90 28.5v-427h-272zM432 213q25 -16 70.5 -31.5t111.5 -15.5q93 0 142.5 36t49.5 118v435q0 81 -48.5 116.5t-134.5 35.5 q-65 0 -116.5 -21.5t-74.5 -44.5v-628z" />
<glyph unicode="q" horiz-adv-x="1194" d="M124 317v433q0 158 111.5 252.5t307.5 94.5q84 0 157.5 -27t119.5 -65l19 69h203v-1484h-272v443q-49 -28 -110 -42t-123 -14q-151 0 -241.5 47.5t-131 125t-40.5 167.5zM396 308q0 -81 50.5 -111.5t141.5 -30.5q86 0 133 24.5t49 29.5v619q-19 29 -64 48.5t-118 19.5 q-87 0 -139.5 -34.5t-52.5 -116.5v-448z" />
<glyph unicode="r" horiz-adv-x="831" d="M160 0v1074h272v-128q24 42 84.5 74.5t138.5 51t156 18.5l-6 -231q-52 -3 -113 -13t-117.5 -27t-95.5 -42t-47 -57v-720h-272z" />
<glyph unicode="s" horiz-adv-x="994" d="M108 61l55 185q86 -37 180.5 -58.5t173.5 -21.5q74 0 110 35.5t36 97.5q0 47 -20.5 73.5t-70.5 42.5l-236 74q-127 40 -174.5 118t-47.5 186q0 154 108.5 229t277.5 75q138 0 234 -29t154 -62l-64 -169q-31 17 -82 33t-108.5 26.5t-108.5 10.5q-86 0 -118 -30t-32 -83 q0 -34 16 -59.5t57 -38.5l222 -70q136 -43 189 -120t53 -203q0 -136 -96 -231t-289 -95q-136 0 -235.5 20.5t-183.5 63.5z" />
<glyph unicode="t" horiz-adv-x="812" d="M64 901v173h150l25 345h239v-345h255v-173h-255v-534q0 -100 43.5 -138.5t166.5 -38.5h52l-10 -202h-74q-162 0 -261 32t-144 110.5t-45 216.5v554h-142z" />
<glyph unicode="u" horiz-adv-x="1251" d="M152 291v783h272v-739q0 -56 28 -89.5t70 -48.5t84 -15q50 0 99 17t81.5 54t32.5 97v724h272v-1074h-256l-8 118q-32 -67 -131 -104t-211 -37q-154 0 -243.5 89t-89.5 225z" />
<glyph unicode="v" horiz-adv-x="1103" d="M34 1074h271l255 -808l252 808h257l-364 -1074h-289z" />
<glyph unicode="w" horiz-adv-x="1648" d="M46 1074h254l192 -769l225 769h221l232 -779l179 779h253l-286 -1074h-266l-220 741l-229 -741h-258z" />
<glyph unicode="x" horiz-adv-x="1082" d="M28 0l368 549l-357 525h292l220 -337l208 337h285l-356 -544l358 -530h-292l-224 346l-213 -346h-289z" />
<glyph unicode="y" horiz-adv-x="1103" d="M34 1074h271l267 -728l226 728h271l-371 -1062q-87 -249 -221.5 -361.5t-328.5 -135.5l-20 225q101 15 174.5 75.5t119.5 181.5l17 44z" />
<glyph unicode="z" horiz-adv-x="906" d="M104 0v167l430 734h-420v173h704v-164l-428 -735h423v-175h-709z" />
<glyph unicode="{" horiz-adv-x="992" d="M188 595v238h14q102 0 139.5 42.5t37.5 160.5v103q0 141 23 224.5t76.5 125t143.5 54.5t224 13v-174q-87 0 -127 -14t-50.5 -51t-10.5 -107v-130q0 -138 -37.5 -234.5t-122.5 -123.5q89 -31 125 -117t36 -236v-117q0 -75 10.5 -120.5t50.5 -65.5t126 -20v-174 q-187 0 -288.5 43t-140 142t-38.5 265v87q0 79 -16 119t-55 53.5t-107 13.5h-13z" />
<glyph unicode="|" horiz-adv-x="692" d="M224 -126v1734h244v-1734h-244z" />
<glyph unicode="}" horiz-adv-x="991" d="M174 46q87 0 126.5 20t50 65.5t10.5 120.5v128q0 150 36.5 236t124.5 117q-85 27 -122.5 123.5t-37.5 234.5v119q0 70 -10.5 107t-50 51t-127.5 14v174q134 0 224 -13t143.5 -54.5t76.5 -125t23 -224.5v-92q0 -118 37.5 -160.5t137.5 -42.5h16v-238h-16 q-100 0 -137.5 -34t-37.5 -152v-98q0 -166 -38.5 -265t-139.5 -142t-289 -43v174z" />
<glyph unicode="~" horiz-adv-x="1083" d="M90 1148q0 140 75 208.5t175 68.5q62 0 116.5 -20.5t104 -47.5t94 -47.5t84.5 -20.5q67 0 95 28t28 75h131q0 -140 -74.5 -208.5t-175.5 -68.5q-61 0 -117 20.5t-107 48t-97.5 48t-88.5 20.5q-64 0 -88 -29t-24 -75h-131z" />
<glyph unicode="&#xa1;" horiz-adv-x="648" d="M191 808v266h280v-266h-280zM192 -403q0 25 7.5 117t21 236t31.5 326t40 388h76q17 -197 32 -377.5t26.5 -326.5t18 -241.5t6.5 -121.5h-259z" />
<glyph unicode="&#xa2;" horiz-adv-x="1111" d="M124 327v430q0 153 106 241.5t298 97.5v195h95v-195q190 -9 288 -95t98 -302l-256 -20q0 130 -26 175t-104 52v-737q79 6 105 47.5t26 163.5h254q0 -141 -33.5 -227.5t-117 -128t-234.5 -46.5v-195h-95v195q-164 6 -251.5 55.5t-120 126.5t-32.5 167zM396 322 q0 -73 32.5 -108t99.5 -43v733q-63 -9 -97.5 -43.5t-34.5 -104.5v-434z" />
<glyph unicode="&#xa3;" horiz-adv-x="1285" d="M139 640v160h130l22 261q12 142 62 243.5t151.5 156t266.5 54.5q107 0 204 -30.5t155 -69.5l-71 -201q-79 35 -145 51t-119 16q-117 0 -158.5 -67.5t-50.5 -169.5l-21 -244h436v-160h-450l-35 -414h608v-226h-924l55 640h-116z" />
<glyph unicode="&#xa4;" horiz-adv-x="1126" d="M124 987l53 80l134 -99q43 44 105.5 70t143.5 26q82 0 144 -27t105 -73l143 103l47 -81l-137 -100q37 -74 37 -163q0 -42 -8.5 -83t-26.5 -77l138 -98l-52 -81l-139 101q-43 -46 -106 -75t-145 -29t-145 27t-106 72l-135 -97l-48 84l128 92q-38 74 -38 164q0 89 40 169z M368 723q0 -76 47 -135.5t145 -59.5q97 0 142.5 59.5t45.5 135.5t-45.5 135.5t-142.5 59.5q-98 0 -145 -59.5t-47 -135.5z" />
<glyph unicode="&#xa5;" horiz-adv-x="1304" d="M0 1476h313l346 -634l345 634h300l-279 -508h203v-130h-274l-92 -168h366v-130h-423v-540h-296v540h-423v130h365l-94 168h-271v130h198z" />
<glyph unicode="&#xa6;" horiz-adv-x="687" d="M224 -126v710h239v-710h-239zM224 932v676h239v-676h-239z" />
<glyph unicode="&#xa7;" horiz-adv-x="1008" d="M108 780q0 128 78 213q-31 40 -44.5 90.5t-13.5 109.5q0 154 108.5 229t277.5 75q138 0 234 -34t154 -67l-64 -169q-31 17 -82 35.5t-108.5 31.5t-108.5 13q-86 0 -118 -30t-32 -83q0 -34 16 -59.5t57 -38.5l222 -70q136 -43 189 -120t53 -203q0 -128 -78 -213 q31 -40 44.5 -90.5t13.5 -109.5q0 -154 -108 -229t-278 -75q-138 0 -234 30.5t-154 70.5l64 159q32 -16 82.5 -32.5t108 -27t108.5 -10.5q86 0 118 30t32 83q0 34 -16 59.5t-57 38.5l-222 70q-136 43 -189 120t-53 203zM317 794q0 -47 20.5 -73.5t69.5 -41.5l263 -83 q47 31 47 93q0 47 -20.5 73.5t-69.5 41.5l-263 83q-47 -31 -47 -93z" />
<glyph unicode="&#xa8;" horiz-adv-x="874" d="M100 1251v233h264v-233h-264zM509 1251v233h265v-233h-265z" />
<glyph unicode="&#xa9;" horiz-adv-x="1776" d="M152 722q0 156 56.5 290t157 233.5t234 155t288.5 55.5q156 0 290 -55.5t234 -155t156 -233.5t56 -290q0 -157 -56 -291t-156 -234t-234 -155.5t-290 -55.5q-155 0 -288.5 55.5t-234 155.5t-157 234t-56.5 291zM261 722q0 -182 81.5 -327t223.5 -229t324 -84 q183 0 325 84t222.5 229t80.5 327t-80.5 326.5t-222.5 228.5t-325 84q-182 0 -324 -84t-223.5 -228.5t-81.5 -326.5zM547 590v278q0 91 28 162t103.5 111.5t219.5 40.5q139 0 208.5 -42.5t93.5 -115t24 -163.5v-25l-116 -10v64q0 114 -48 157.5t-162 43.5q-113 0 -172 -43.5 t-59 -157.5v-319q0 -114 59 -154.5t173 -40.5q115 0 162 40.5t47 154.5v61h116v-34q0 -88 -24 -158.5t-93.5 -111.5t-207.5 -41q-143 0 -219.5 38.5t-104.5 107t-28 157.5z" />
<glyph unicode="&#xaa;" horiz-adv-x="1024" d="M133 783q0 61 17.5 105t76.5 81t181 76q97 31 145 52.5t64 47t16 67.5q0 56 -29.5 84t-103.5 28q-82 0 -108.5 -34.5t-26.5 -87.5v-36h-205v27q0 134 83.5 213.5t261.5 79.5q194 0 271 -84.5t77 -227.5v-354q0 -63 17 -87t69 -24l-18 -170h-85q-90 0 -125.5 35t-58.5 90 q-35 -49 -103.5 -94t-163.5 -45q-114 0 -183 70t-69 188zM343 801q0 -109 114 -109q41 0 93 19t82 67v232q-20 -19 -67.5 -40t-102.5 -38q-70 -21 -94.5 -55.5t-24.5 -75.5z" />
<glyph unicode="&#xab;" horiz-adv-x="1024" d="M67 530l273 450l147 -70l-207 -380l207 -380l-140 -70zM481 530l273 450l145 -70l-204 -380l204 -380l-138 -70z" />
<glyph unicode="&#xac;" horiz-adv-x="967" d="M132 487v162h703v-393h-164v231h-539z" />
<glyph unicode="&#xad;" horiz-adv-x="868" d="M132 474v188h604v-188h-604z" />
<glyph unicode="&#xae;" horiz-adv-x="1776" d="M156 722q0 156 56.5 290t157 233.5t234 155t288.5 55.5q156 0 290 -55.5t234 -155t156 -233.5t56 -290q0 -157 -56 -291t-156 -234t-234 -155.5t-290 -55.5q-155 0 -288.5 55.5t-234 155.5t-157 234t-56.5 291zM265 722q0 -182 81.5 -327t223.5 -229t324 -84 q183 0 325 84t222.5 229t80.5 327t-80.5 326.5t-222.5 228.5t-325 84q-182 0 -324 -84t-223.5 -228.5t-81.5 -326.5zM585 319v834h423q125 0 184 -61t59 -184v-14q0 -108 -41.5 -158.5t-110.5 -69.5l184 -347h-128l-180 333h-259v-333h-131zM716 742h267q72 0 104 39t32 106 v24q0 39 -7 73.5t-34 56t-86 21.5h-276v-320z" />
<glyph unicode="&#xaf;" horiz-adv-x="784" d="M100 1266v167h584v-167h-584z" />
<glyph unicode="&#xb0;" horiz-adv-x="842" d="M70 1180q0 143 89.5 237t261.5 94q173 0 262 -94t89 -237t-89 -236.5t-262 -93.5q-172 0 -261.5 93.5t-89.5 236.5zM262 1181q0 -73 39.5 -115.5t119.5 -42.5t119.5 42.5t39.5 115.5q0 74 -39.5 116t-119.5 42t-119.5 -42t-39.5 -116z" />
<glyph unicode="&#xb1;" horiz-adv-x="1044" d="M171 85v162h702v-162h-702zM171 587v162h269v219h164v-219h269v-162h-269v-231h-164v231h-269z" />
<glyph unicode="&#xb2;" horiz-adv-x="829" d="M90 1486q0 151 79.5 231.5t251.5 80.5q171 0 244.5 -79t73.5 -188q0 -98 -49 -168t-135 -152l-179 -169h348v-152h-584l-22 136l311 294q68 65 92.5 107.5t24.5 91.5q0 47 -30 78t-97 31q-78 0 -112 -34t-34 -108h-183z" />
<glyph unicode="&#xb3;" horiz-adv-x="827" d="M90 1151h181q0 -108 140 -108q65 0 99 26t34 93q0 68 -36.5 96t-134.5 28v140q94 0 128.5 23t34.5 75q0 46 -28 71.5t-97 25.5q-72 0 -104.5 -28t-32.5 -84h-180q0 160 85.5 221t229.5 61q143 0 231.5 -62.5t88.5 -178.5q0 -58 -21 -112t-91 -82q67 -30 93.5 -85.5 t26.5 -125.5q0 -116 -75 -194t-249 -78q-169 0 -246 74t-77 204z" />
<glyph unicode="&#xb4;" horiz-adv-x="590" d="M100 1165l122 365h268l-241 -365h-149z" />
<glyph unicode="&#xb5;" horiz-adv-x="1246" d="M148 -236v1310h272v-766q0 -56 28 -87t70 -43t84 -12q50 0 99 17t81.5 50.5t32.5 83.5v757h273v-1074h-267l-6 135q-28 -70 -93 -112t-160 -42q-78 0 -162 21v-238h-252z" />
<glyph unicode="&#xb6;" horiz-adv-x="1222" d="M95 1173q0 162 95 232.5t272 70.5h560v-1476h-212v1274h-151v-1274h-212v859q-166 0 -259 76t-93 238z" />
<glyph unicode="&#xb7;" horiz-adv-x="448" d="M100 620v245h248v-245h-248z" />
<glyph unicode="&#xb8;" horiz-adv-x="592" d="M100 -363h178q32 0 44 13.5t12 32.5v58q0 20 -14 33t-42 13h-90v243h131v-123q90 -10 131.5 -52t41.5 -117v-50q0 -71 -46 -122t-159 -51h-187v122z" />
<glyph unicode="&#xb9;" horiz-adv-x="778" d="M90 1733l297 43h123v-734h208v-152h-625v152h224v564l-207 -29z" />
<glyph unicode="&#xba;" horiz-adv-x="1024" d="M136 822v364q0 141 98.5 220.5t277.5 79.5q178 0 277 -79.5t99 -220.5v-364q0 -137 -82 -218t-293 -81q-206 0 -291.5 80.5t-85.5 218.5zM356 813q0 -70 40.5 -98.5t114.5 -28.5q156 0 156 127v385q0 71 -40.5 99t-114.5 28q-70 0 -113 -28t-43 -99v-385z" />
<glyph unicode="&#xbb;" horiz-adv-x="1024" d="M154 150l204 380l-204 380l138 70l280 -450l-273 -450zM566 150l207 380l-207 380l140 70l280 -450l-273 -450z" />
<glyph unicode="&#xbc;" horiz-adv-x="1891" d="M90 1433l297 43h123v-734h208v-152h-625v152h224v564l-207 -29zM578 0l641 1505h174l-641 -1505h-174zM1153 170v149l255 567h205l-254 -564h186v208h192v-208h104v-152h-104v-170h-192v170h-392z" />
<glyph unicode="&#xbd;" horiz-adv-x="1917" d="M90 1433l297 43h123v-734h208v-152h-625v152h224v564l-207 -29zM578 0l641 1505h174l-641 -1505h-174zM1178 596q0 151 79.5 231.5t251.5 80.5q171 0 244.5 -79t73.5 -188q0 -98 -49 -168t-135 -152l-179 -169h348v-152h-584l-22 136l311 294q68 65 92.5 107.5t24.5 91.5 q0 47 -30 78t-97 31q-78 0 -112 -34t-34 -108h-183z" />
<glyph unicode="&#xbe;" horiz-adv-x="1940" d="M90 851h181q0 -108 140 -108q65 0 99 26t34 93q0 68 -36.5 96t-134.5 28v140q94 0 128.5 23t34.5 75q0 46 -28 71.5t-97 25.5q-72 0 -104.5 -28t-32.5 -84h-180q0 160 85.5 221t229.5 61q143 0 231.5 -62.5t88.5 -178.5q0 -58 -21 -112t-91 -82q67 -30 93.5 -85.5 t26.5 -125.5q0 -116 -75 -194t-249 -78q-169 0 -246 74t-77 204zM627 0l641 1505h174l-641 -1505h-174zM1202 170v149l255 567h205l-254 -564h186v208h192v-208h104v-152h-104v-170h-192v170h-392z" />
<glyph unicode="&#xbf;" horiz-adv-x="1244" d="M130 7q0 154 62.5 263t199.5 222l182 151h229l-248 -309q-72 -90 -102.5 -158t-30.5 -158q0 -55 13 -106t57 -84t137 -33q101 0 146.5 28.5t57 80.5t11.5 123v85h274v-74q0 -102 -16.5 -187.5t-66 -147.5t-147 -96t-259.5 -34q-161 0 -259.5 36t-150.5 97.5t-70.5 139.5 t-18.5 161zM555 808v266h280v-266h-280z" />
<glyph unicode="&#xc0;" horiz-adv-x="1512" d="M70 0l486 1476h394l492 -1476h-315l-82 281h-580l-85 -281h-310zM436 2022h318l162 -365h-199zM535 511h442l-217 743z" />
<glyph unicode="&#xc1;" horiz-adv-x="1512" d="M70 0l486 1476h394l492 -1476h-315l-82 281h-580l-85 -281h-310zM535 511h442l-217 743zM596 1657l162 365h318l-281 -365h-199z" />
<glyph unicode="&#xc2;" horiz-adv-x="1512" d="M70 0l486 1476h394l492 -1476h-315l-82 281h-580l-85 -281h-310zM380 1638l277 355h198l277 -355h-179l-197 175l-197 -175h-179zM535 511h442l-217 743z" />
<glyph unicode="&#xc3;" horiz-adv-x="1512" d="M70 0l486 1476h394l492 -1476h-315l-82 281h-580l-85 -281h-310zM403 1664q0 140 62.5 200t164.5 60q66 0 106.5 -15.5t67 -35.5t48.5 -35.5t51 -15.5q30 0 51 19.5t21 66.5h134q0 -140 -62.5 -200t-164.5 -60q-65 0 -106.5 15.5t-69.5 36t-51.5 36t-53.5 15.5 q-28 0 -46 -20.5t-18 -66.5h-134zM535 511h442l-217 743z" />
<glyph unicode="&#xc4;" horiz-adv-x="1512" d="M70 0l486 1476h394l492 -1476h-315l-82 281h-580l-85 -281h-310zM419 1683v233h264v-233h-264zM535 511h442l-217 743zM828 1683v233h265v-233h-265z" />
<glyph unicode="&#xc5;" horiz-adv-x="1512" d="M70 0l486 1476h394l492 -1476h-315l-82 281h-580l-85 -281h-310zM486 1790q0 119 72 183.5t198 64.5q125 0 197.5 -64.5t72.5 -183.5q0 -120 -72 -185t-198 -65t-198 65t-72 185zM535 511h442l-217 743zM670 1791q0 -54 24 -73t62 -19q37 0 61.5 18.5t24.5 71.5 t-24.5 72.5t-62.5 19.5q-37 0 -61 -18.5t-24 -71.5z" />
<glyph unicode="&#xc6;" horiz-adv-x="1834" d="M83 0l456 1477h1161v-228h-527v-391h457v-213h-457v-418h537v-227h-817v414h-379l-121 -414h-310zM581 644h312v605h-136z" />
<glyph unicode="&#xc7;" horiz-adv-x="1490" d="M160 484v493q0 112 23.5 207.5t88 166.5t187.5 110.5t321 39.5q189 0 304.5 -38.5t175.5 -108.5t81 -164.5t21 -206.5v-18l-291 -34v75q0 104 -26 160.5t-89 79t-176 22.5q-165 0 -244 -52t-79 -204v-558q0 -101 35 -154.5t106.5 -73t182.5 -19.5q113 0 176 19.5t88.5 74 t25.5 159.5v47h291v-27q0 -109 -20 -201t-79 -160.5t-175 -106.5t-308 -38q-197 0 -319.5 38.5t-187.5 107.5t-89 162t-24 202zM622 -363h178q32 0 44 13.5t12 32.5v58q0 20 -14 33t-42 13h-90v243h131v-123q90 -10 131.5 -52t41.5 -117v-50q0 -71 -46 -122t-159 -51h-187 v122z" />
<glyph unicode="&#xc8;" horiz-adv-x="1294" d="M190 0v1476h967v-224h-671v-392h595v-214h-595v-422h682v-224h-978zM355 2022h318l162 -365h-199z" />
<glyph unicode="&#xc9;" horiz-adv-x="1294" d="M190 0v1476h967v-224h-671v-392h595v-214h-595v-422h682v-224h-978zM515 1657l162 365h318l-281 -365h-199z" />
<glyph unicode="&#xca;" horiz-adv-x="1294" d="M190 0v1476h967v-224h-671v-392h595v-214h-595v-422h682v-224h-978zM299 1638l277 355h198l277 -355h-179l-197 175l-197 -175h-179z" />
<glyph unicode="&#xcb;" horiz-adv-x="1294" d="M190 0v1476h967v-224h-671v-392h595v-214h-595v-422h682v-224h-978zM338 1683v233h264v-233h-264zM747 1683v233h265v-233h-265z" />
<glyph unicode="&#xcc;" horiz-adv-x="1148" d="M158 0v222h269v1033h-269v221h832v-221h-267v-1033h267v-222h-832zM254 2022h318l162 -365h-199z" />
<glyph unicode="&#xcd;" horiz-adv-x="1148" d="M158 0v222h269v1033h-269v221h832v-221h-267v-1033h267v-222h-832zM414 1657l162 365h318l-281 -365h-199z" />
<glyph unicode="&#xce;" horiz-adv-x="1148" d="M158 0v222h269v1033h-269v221h832v-221h-267v-1033h267v-222h-832zM198 1638l277 355h198l277 -355h-179l-197 175l-197 -175h-179z" />
<glyph unicode="&#xcf;" horiz-adv-x="1148" d="M158 0v222h269v1033h-269v221h832v-221h-267v-1033h267v-222h-832zM237 1683v233h264v-233h-264zM646 1683v233h265v-233h-265z" />
<glyph unicode="&#xd0;" horiz-adv-x="1534" d="M9 706v148h181v622h640q214 0 332 -68.5t165 -185t47 -261.5v-453q0 -147 -49.5 -262t-167.5 -180.5t-326 -65.5h-641v706h-181zM487 231h318q157 0 214.5 58t57.5 181v530q0 120 -58.5 182.5t-213.5 62.5h-318v-391h226v-148h-226v-475z" />
<glyph unicode="&#xd1;" horiz-adv-x="1634" d="M190 0v1476h223l767 -1012v1012h264v-1476h-223l-764 997v-997h-267zM464 1664q0 140 62.5 200t164.5 60q66 0 106.5 -15.5t67 -35.5t48.5 -35.5t51 -15.5q30 0 51 19.5t21 66.5h134q0 -140 -62.5 -200t-164.5 -60q-65 0 -106.5 15.5t-69.5 36t-51.5 36t-53.5 15.5 q-28 0 -46 -20.5t-18 -66.5h-134z" />
<glyph unicode="&#xd2;" horiz-adv-x="1606" d="M160 501v462q0 112 28 209.5t99 171.5t199 115.5t328 41.5q191 0 314.5 -44t193 -120.5t97 -176.5t27.5 -212v-431q0 -109 -28 -206.5t-97.5 -173.5t-192.5 -119.5t-314 -43.5q-199 0 -327 41t-199 113t-99.5 168t-28.5 205zM458 468q0 -152 95 -206.5t261 -54.5 q168 0 251 55t83 206v535q0 149 -83.5 207t-250.5 58q-165 0 -260.5 -56.5t-95.5 -208.5v-535zM483 2022h318l162 -365h-199z" />
<glyph unicode="&#xd3;" horiz-adv-x="1606" d="M160 501v462q0 112 28 209.5t99 171.5t199 115.5t328 41.5q191 0 314.5 -44t193 -120.5t97 -176.5t27.5 -212v-431q0 -109 -28 -206.5t-97.5 -173.5t-192.5 -119.5t-314 -43.5q-199 0 -327 41t-199 113t-99.5 168t-28.5 205zM458 468q0 -152 95 -206.5t261 -54.5 q168 0 251 55t83 206v535q0 149 -83.5 207t-250.5 58q-165 0 -260.5 -56.5t-95.5 -208.5v-535zM643 1657l162 365h318l-281 -365h-199z" />
<glyph unicode="&#xd4;" horiz-adv-x="1606" d="M160 501v462q0 112 28 209.5t99 171.5t199 115.5t328 41.5q191 0 314.5 -44t193 -120.5t97 -176.5t27.5 -212v-431q0 -109 -28 -206.5t-97.5 -173.5t-192.5 -119.5t-314 -43.5q-199 0 -327 41t-199 113t-99.5 168t-28.5 205zM427 1638l277 355h198l277 -355h-179 l-197 175l-197 -175h-179zM458 468q0 -152 95 -206.5t261 -54.5q168 0 251 55t83 206v535q0 149 -83.5 207t-250.5 58q-165 0 -260.5 -56.5t-95.5 -208.5v-535z" />
<glyph unicode="&#xd5;" horiz-adv-x="1606" d="M160 501v462q0 112 28 209.5t99 171.5t199 115.5t328 41.5q191 0 314.5 -44t193 -120.5t97 -176.5t27.5 -212v-431q0 -109 -28 -206.5t-97.5 -173.5t-192.5 -119.5t-314 -43.5q-199 0 -327 41t-199 113t-99.5 168t-28.5 205zM450 1664q0 140 62.5 200t164.5 60 q66 0 106.5 -15.5t67 -35.5t48.5 -35.5t51 -15.5q30 0 51 19.5t21 66.5h134q0 -140 -62.5 -200t-164.5 -60q-65 0 -106.5 15.5t-69.5 36t-51.5 36t-53.5 15.5q-28 0 -46 -20.5t-18 -66.5h-134zM458 468q0 -152 95 -206.5t261 -54.5q168 0 251 55t83 206v535q0 149 -83.5 207 t-250.5 58q-165 0 -260.5 -56.5t-95.5 -208.5v-535z" />
<glyph unicode="&#xd6;" horiz-adv-x="1606" d="M160 501v462q0 112 28 209.5t99 171.5t199 115.5t328 41.5q191 0 314.5 -44t193 -120.5t97 -176.5t27.5 -212v-431q0 -109 -28 -206.5t-97.5 -173.5t-192.5 -119.5t-314 -43.5q-199 0 -327 41t-199 113t-99.5 168t-28.5 205zM458 468q0 -152 95 -206.5t261 -54.5 q168 0 251 55t83 206v535q0 149 -83.5 207t-250.5 58q-165 0 -260.5 -56.5t-95.5 -208.5v-535zM466 1683v233h264v-233h-264zM875 1683v233h265v-233h-265z" />
<glyph unicode="&#xd7;" horiz-adv-x="1025" d="M154 344l238 232l-238 230l111 131l248 -243l248 243l110 -131l-237 -230l237 -232l-110 -128l-248 242l-248 -242z" />
<glyph unicode="&#xd8;" horiz-adv-x="1606" d="M160 501v462q0 112 28 209.5t99 171.5t199 115.5t328 41.5q131 0 234 -22l75 197l104 -38l-73 -191q114 -45 177.5 -121t89 -173t25.5 -205v-431q0 -109 -28 -206.5t-97.5 -173.5t-192.5 -119.5t-314 -43.5q-119 0 -216 16l-70 -185l-103 38l65 172q-130 39 -201.5 111.5 t-100 168.5t-28.5 206zM458 468q0 -86 31 -139.5t90 -81.5l383 1007q-61 14 -148 14q-165 0 -260.5 -56.5t-95.5 -208.5v-535zM685 216q55 -9 129 -9q168 0 251 55t83 206v535q0 145 -84 207z" />
<glyph unicode="&#xd9;" horiz-adv-x="1574" d="M176 468v1009h297v-1022q0 -146 84.5 -197t238.5 -51q156 0 230.5 52t74.5 196v1022h297v-997q0 -105 -25 -197t-89.5 -161.5t-182.5 -108.5t-305 -39q-189 0 -310.5 37t-189 104t-94 157t-26.5 196zM467 2022h318l162 -365h-199z" />
<glyph unicode="&#xda;" horiz-adv-x="1574" d="M176 468v1009h297v-1022q0 -146 84.5 -197t238.5 -51q156 0 230.5 52t74.5 196v1022h297v-997q0 -105 -25 -197t-89.5 -161.5t-182.5 -108.5t-305 -39q-189 0 -310.5 37t-189 104t-94 157t-26.5 196zM627 1657l162 365h318l-281 -365h-199z" />
<glyph unicode="&#xdb;" horiz-adv-x="1574" d="M176 468v1009h297v-1022q0 -146 84.5 -197t238.5 -51q156 0 230.5 52t74.5 196v1022h297v-997q0 -105 -25 -197t-89.5 -161.5t-182.5 -108.5t-305 -39q-189 0 -310.5 37t-189 104t-94 157t-26.5 196zM411 1638l277 355h198l277 -355h-179l-197 175l-197 -175h-179z" />
<glyph unicode="&#xdc;" horiz-adv-x="1574" d="M176 468v1009h297v-1022q0 -146 84.5 -197t238.5 -51q156 0 230.5 52t74.5 196v1022h297v-997q0 -105 -25 -197t-89.5 -161.5t-182.5 -108.5t-305 -39q-189 0 -310.5 37t-189 104t-94 157t-26.5 196zM450 1683v233h264v-233h-264zM859 1683v233h265v-233h-265z" />
<glyph unicode="&#xdd;" horiz-adv-x="1304" d="M0 1476h313l346 -634l345 634h300l-499 -909v-567h-296v567zM492 1657l162 365h318l-281 -365h-199z" />
<glyph unicode="&#xde;" horiz-adv-x="1362" d="M216 0v1476h297v-236h293q164 0 266.5 -38t151 -131.5t48.5 -259.5q0 -171 -43 -270.5t-150.5 -142t-300.5 -42.5h-265v-356h-297zM513 567h312q75 0 113.5 20.5t52 70.5t13.5 139q0 116 -32.5 176t-137.5 60h-321v-466z" />
<glyph unicode="&#xdf;" horiz-adv-x="1286" d="M140 0v1116q0 151 67 234t182.5 116.5t262.5 33.5q236 0 349 -95.5t113 -256.5q0 -96 -29.5 -165.5t-91.5 -106.5q55 -21 105 -67.5t82 -126.5t32 -203q0 -182 -58 -289t-189.5 -153.5t-353.5 -46.5l-23 200q169 0 251.5 58.5t82.5 217.5q0 113 -34 170.5t-101.5 77 t-168.5 19.5v190q122 0 170.5 44t48.5 162q0 101 -50 141t-143 40q-194 0 -194 -176v-1134h-310z" />
<glyph unicode="&#xe0;" horiz-adv-x="1174" d="M112 270q0 76 31 135t113 109.5t235 98.5q125 40 184.5 74t59.5 90q0 65 -38.5 97.5t-130.5 32.5q-102 0 -134.5 -40t-32.5 -102v-42h-255v32q0 156 104 249t324 93q161 0 255 -45t135 -126.5t41 -192.5v-425q0 -73 18.5 -95.5t68.5 -22.5l-11 -198h-57q-112 0 -174 31 t-91 96q-43 -57 -129.5 -99.5t-204.5 -42.5q-138 0 -224.5 80t-86.5 213zM312 1621h268l122 -365h-149zM377 285q0 -65 38 -96t99 -31q50 0 117 28t104 86v272q-27 -22 -86 -48.5t-127 -51.5q-89 -33 -117 -73t-28 -86z" />
<glyph unicode="&#xe1;" horiz-adv-x="1174" d="M112 270q0 76 31 135t113 109.5t235 98.5q125 40 184.5 74t59.5 90q0 65 -38.5 97.5t-130.5 32.5q-102 0 -134.5 -40t-32.5 -102v-42h-255v32q0 156 104 249t324 93q161 0 255 -45t135 -126.5t41 -192.5v-425q0 -73 18.5 -95.5t68.5 -22.5l-11 -198h-57q-112 0 -174 31 t-91 96q-43 -57 -129.5 -99.5t-204.5 -42.5q-138 0 -224.5 80t-86.5 213zM377 285q0 -65 38 -96t99 -31q50 0 117 28t104 86v272q-27 -22 -86 -48.5t-127 -51.5q-89 -33 -117 -73t-28 -86zM442 1255l122 365h268l-241 -365h-149z" />
<glyph unicode="&#xe2;" horiz-adv-x="1174" d="M112 270q0 76 31 135t113 109.5t235 98.5q125 40 184.5 74t59.5 90q0 65 -38.5 97.5t-130.5 32.5q-102 0 -134.5 -40t-32.5 -102v-42h-255v32q0 156 104 249t324 93q161 0 255 -45t135 -126.5t41 -192.5v-425q0 -73 18.5 -95.5t68.5 -22.5l-11 -198h-57q-112 0 -174 31 t-91 96q-43 -57 -129.5 -99.5t-204.5 -42.5q-138 0 -224.5 80t-86.5 213zM197 1256l277 365h198l277 -365h-179l-197 184l-197 -184h-179zM377 285q0 -65 38 -96t99 -31q50 0 117 28t104 86v272q-27 -22 -86 -48.5t-127 -51.5q-89 -33 -117 -73t-28 -86z" />
<glyph unicode="&#xe3;" horiz-adv-x="1174" d="M112 270q0 76 31 135t113 109.5t235 98.5q125 40 184.5 74t59.5 90q0 65 -38.5 97.5t-130.5 32.5q-102 0 -134.5 -40t-32.5 -102v-42h-255v32q0 156 104 249t324 93q161 0 255 -45t135 -126.5t41 -192.5v-425q0 -73 18.5 -95.5t68.5 -22.5l-11 -198h-57q-112 0 -174 31 t-91 96q-43 -57 -129.5 -99.5t-204.5 -42.5q-138 0 -224.5 80t-86.5 213zM219 1317q0 140 62.5 200t164.5 60q66 0 106.5 -15.5t67 -35.5t48.5 -35.5t51 -15.5q30 0 51 19.5t21 66.5h134q0 -140 -62.5 -200t-164.5 -60q-65 0 -106.5 15.5t-69.5 36t-51.5 36t-53.5 15.5 q-28 0 -46 -20.5t-18 -66.5h-134zM377 285q0 -65 38 -96t99 -31q50 0 117 28t104 86v272q-27 -22 -86 -48.5t-127 -51.5q-89 -33 -117 -73t-28 -86z" />
<glyph unicode="&#xe4;" horiz-adv-x="1174" d="M112 270q0 76 31 135t113 109.5t235 98.5q125 40 184.5 74t59.5 90q0 65 -38.5 97.5t-130.5 32.5q-102 0 -134.5 -40t-32.5 -102v-42h-255v32q0 156 104 249t324 93q161 0 255 -45t135 -126.5t41 -192.5v-425q0 -73 18.5 -95.5t68.5 -22.5l-11 -198h-57q-112 0 -174 31 t-91 96q-43 -57 -129.5 -99.5t-204.5 -42.5q-138 0 -224.5 80t-86.5 213zM235 1311v233h264v-233h-264zM377 285q0 -65 38 -96t99 -31q50 0 117 28t104 86v272q-27 -22 -86 -48.5t-127 -51.5q-89 -33 -117 -73t-28 -86zM644 1311v233h265v-233h-265z" />
<glyph unicode="&#xe5;" horiz-adv-x="1174" d="M112 270q0 76 31 135t113 109.5t235 98.5q125 40 184.5 74t59.5 90q0 65 -38.5 97.5t-130.5 32.5q-102 0 -134.5 -40t-32.5 -102v-42h-255v32q0 156 104 249t324 93q161 0 255 -45t135 -126.5t41 -192.5v-425q0 -73 18.5 -95.5t68.5 -22.5l-11 -198h-57q-112 0 -174 31 t-91 96q-43 -57 -129.5 -99.5t-204.5 -42.5q-138 0 -224.5 80t-86.5 213zM302 1448q0 119 72 183.5t198 64.5q125 0 197.5 -64.5t72.5 -183.5q0 -120 -72 -185t-198 -65t-198 65t-72 185zM377 285q0 -65 38 -96t99 -31q50 0 117 28t104 86v272q-27 -22 -86 -48.5t-127 -51.5 q-89 -33 -117 -73t-28 -86zM486 1449q0 -54 24 -73t62 -19q37 0 61.5 18.5t24.5 71.5t-24.5 72.5t-62.5 19.5q-37 0 -61 -18.5t-24 -71.5z" />
<glyph unicode="&#xe6;" horiz-adv-x="1734" d="M112 268q-2 76 18 133t92.5 101.5t225.5 83.5q105 27 169 42t93 44t29 98q0 62 -38 100t-134 38q-103 0 -135 -45.5t-32 -107.5v-36h-256v26q0 156 104 254t325 98q101 0 185.5 -31.5t119.5 -98.5q54 66 132.5 98t176.5 32q163 0 258.5 -43t137 -122t41.5 -187v-231h-612 v-193q0 -88 46.5 -121.5t131.5 -33.5q62 0 101 11.5t58 51.5t21 124h252q-3 -156 -51.5 -237t-144 -110t-240.5 -29q-257 0 -339 153q-85 -74 -180.5 -113.5t-246.5 -39.5q-138 0 -221 79t-87 212zM373 290q2 -63 38.5 -98t103.5 -35q50 0 118.5 22.5t105.5 79.5v261 q-19 -16 -78.5 -36t-133.5 -37q-98 -22 -126.5 -66.5t-27.5 -90.5zM1012 655h359v110q0 89 -48 115.5t-130 26.5t-131.5 -30.5t-49.5 -116.5v-105z" />
<glyph unicode="&#xe7;" horiz-adv-x="1111" d="M124 327v430q0 161 117 250.5t328 89.5q145 0 242.5 -35.5t147.5 -122t50 -240.5l-256 -20q0 98 -14.5 146.5t-52 65t-107.5 16.5q-87 0 -135 -34t-48 -117v-434q0 -86 45 -120t138 -34q71 0 109 15t52 60.5t14 136.5h254q0 -148 -37.5 -236.5t-132 -127.5t-265.5 -39 q-183 0 -280 48.5t-133 128.5t-36 173zM419 -363h178q32 0 44 13.5t12 32.5v58q0 20 -14 33t-42 13h-90v243h131v-123q90 -10 131.5 -52t41.5 -117v-50q0 -71 -46 -122t-159 -51h-187v122z" />
<glyph unicode="&#xe8;" horiz-adv-x="1149" d="M124 336v419q0 164 124.5 253t333.5 89q248 0 352.5 -95t104.5 -257v-260h-643v-175q0 -95 49 -119.5t146 -24.5q116 0 155.5 32.5t39.5 131.5h252q0 -199 -112 -276t-340 -77q-131 0 -236 32.5t-165.5 110.5t-60.5 216zM332 1621h268l122 -365h-149zM396 651h386v126 q0 60 -25.5 87.5t-69 35t-98.5 7.5q-82 0 -137.5 -24.5t-55.5 -110.5v-121z" />
<glyph unicode="&#xe9;" horiz-adv-x="1149" d="M124 336v419q0 164 124.5 253t333.5 89q248 0 352.5 -95t104.5 -257v-260h-643v-175q0 -95 49 -119.5t146 -24.5q116 0 155.5 32.5t39.5 131.5h252q0 -199 -112 -276t-340 -77q-131 0 -236 32.5t-165.5 110.5t-60.5 216zM396 651h386v126q0 60 -25.5 87.5t-69 35 t-98.5 7.5q-82 0 -137.5 -24.5t-55.5 -110.5v-121zM462 1255l122 365h268l-241 -365h-149z" />
<glyph unicode="&#xea;" horiz-adv-x="1149" d="M124 336v419q0 164 124.5 253t333.5 89q248 0 352.5 -95t104.5 -257v-260h-643v-175q0 -95 49 -119.5t146 -24.5q116 0 155.5 32.5t39.5 131.5h252q0 -199 -112 -276t-340 -77q-131 0 -236 32.5t-165.5 110.5t-60.5 216zM217 1256l277 365h198l277 -365h-179l-197 184 l-197 -184h-179zM396 651h386v126q0 60 -25.5 87.5t-69 35t-98.5 7.5q-82 0 -137.5 -24.5t-55.5 -110.5v-121z" />
<glyph unicode="&#xeb;" horiz-adv-x="1149" d="M124 336v419q0 164 124.5 253t333.5 89q248 0 352.5 -95t104.5 -257v-260h-643v-175q0 -95 49 -119.5t146 -24.5q116 0 155.5 32.5t39.5 131.5h252q0 -199 -112 -276t-340 -77q-131 0 -236 32.5t-165.5 110.5t-60.5 216zM255 1311v233h264v-233h-264zM396 651h386v126 q0 60 -25.5 87.5t-69 35t-98.5 7.5q-82 0 -137.5 -24.5t-55.5 -110.5v-121zM664 1311v233h265v-233h-265z" />
<glyph unicode="&#xec;" horiz-adv-x="519" d="M-1 1621h268l122 -365h-149zM124 0v1074h271v-1074h-271z" />
<glyph unicode="&#xed;" horiz-adv-x="519" d="M124 0v1074h271v-1074h-271zM129 1255l122 365h268l-241 -365h-149z" />
<glyph unicode="&#xee;" horiz-adv-x="488" d="M-76 1245l237 365h198l237 -365h-179l-157 177l-157 -177h-179zM124 0v1074h271v-1074h-271z" />
<glyph unicode="&#xef;" horiz-adv-x="519" d="M-78 1311v233h264v-233h-264zM124 0v1074h271v-1074h-271zM331 1311v233h265v-233h-265z" />
<glyph unicode="&#xf0;" horiz-adv-x="1256" d="M166 342v316q0 114 56 194t151.5 121.5t211.5 41.5q87 0 143 -17t80 -37q-35 272 -212 323l-89 -174l-119 57l77 151q-64 11 -122 14t-110 3l24 167q78 0 141 -4t148 -15l86 172l120 -57l-74 -150q125 -36 226 -144t160.5 -277.5t59.5 -390.5v-176q0 -132 -45 -242 t-150.5 -175.5t-287.5 -65.5q-236 0 -355.5 98.5t-119.5 266.5zM438 333q0 -84 50 -119.5t153 -35.5q97 0 142 27t58 82.5t13 140.5q0 35 -2.5 93.5t-7.5 126t-13 128.5q-32 23 -81 40t-109 17q-87 0 -145 -41.5t-58 -139.5v-319z" />
<glyph unicode="&#xf1;" horiz-adv-x="1254" d="M160 0v1074h272v-95q62 53 137 86t192 33q121 0 196 -44.5t110 -118.5t35 -165v-770h-272v755q0 57 -29.5 87t-73 41t-86.5 11q-49 0 -97 -18t-80 -53t-32 -88v-735h-272zM289 1317q0 140 62.5 200t164.5 60q66 0 106.5 -15.5t67 -35.5t48.5 -35.5t51 -15.5q30 0 51 19.5 t21 66.5h134q0 -140 -62.5 -200t-164.5 -60q-65 0 -106.5 15.5t-69.5 36t-51.5 36t-53.5 15.5q-28 0 -46 -20.5t-18 -66.5h-134z" />
<glyph unicode="&#xf2;" horiz-adv-x="1180" d="M124 325v423q0 164 122.5 256.5t343.5 92.5q220 0 343 -92.5t123 -256.5v-423q0 -106 -44 -184.5t-145.5 -121t-276.5 -42.5q-254 0 -360 94t-106 254zM332 1621h268l122 -365h-149zM396 313q0 -82 50 -114.5t144 -32.5q87 0 140.5 32.5t53.5 114.5v447q0 82 -51 114.5 t-143 32.5q-88 0 -141 -32.5t-53 -114.5v-447z" />
<glyph unicode="&#xf3;" horiz-adv-x="1180" d="M124 325v423q0 164 122.5 256.5t343.5 92.5q220 0 343 -92.5t123 -256.5v-423q0 -106 -44 -184.5t-145.5 -121t-276.5 -42.5q-254 0 -360 94t-106 254zM396 313q0 -82 50 -114.5t144 -32.5q87 0 140.5 32.5t53.5 114.5v447q0 82 -51 114.5t-143 32.5q-88 0 -141 -32.5 t-53 -114.5v-447zM462 1255l122 365h268l-241 -365h-149z" />
<glyph unicode="&#xf4;" horiz-adv-x="1180" d="M124 325v423q0 164 122.5 256.5t343.5 92.5q220 0 343 -92.5t123 -256.5v-423q0 -106 -44 -184.5t-145.5 -121t-276.5 -42.5q-254 0 -360 94t-106 254zM217 1256l277 365h198l277 -365h-179l-197 184l-197 -184h-179zM396 313q0 -82 50 -114.5t144 -32.5q87 0 140.5 32.5 t53.5 114.5v447q0 82 -51 114.5t-143 32.5q-88 0 -141 -32.5t-53 -114.5v-447z" />
<glyph unicode="&#xf5;" horiz-adv-x="1180" d="M124 325v423q0 164 122.5 256.5t343.5 92.5q220 0 343 -92.5t123 -256.5v-423q0 -106 -44 -184.5t-145.5 -121t-276.5 -42.5q-254 0 -360 94t-106 254zM239 1317q0 140 62.5 200t164.5 60q66 0 106.5 -15.5t67 -35.5t48.5 -35.5t51 -15.5q30 0 51 19.5t21 66.5h134 q0 -140 -62.5 -200t-164.5 -60q-65 0 -106.5 15.5t-69.5 36t-51.5 36t-53.5 15.5q-28 0 -46 -20.5t-18 -66.5h-134zM396 313q0 -82 50 -114.5t144 -32.5q87 0 140.5 32.5t53.5 114.5v447q0 82 -51 114.5t-143 32.5q-88 0 -141 -32.5t-53 -114.5v-447z" />
<glyph unicode="&#xf6;" horiz-adv-x="1180" d="M124 325v423q0 164 122.5 256.5t343.5 92.5q220 0 343 -92.5t123 -256.5v-423q0 -106 -44 -184.5t-145.5 -121t-276.5 -42.5q-254 0 -360 94t-106 254zM255 1311v233h264v-233h-264zM396 313q0 -82 50 -114.5t144 -32.5q87 0 140.5 32.5t53.5 114.5v447q0 82 -51 114.5 t-143 32.5q-88 0 -141 -32.5t-53 -114.5v-447zM664 1311v233h265v-233h-265z" />
<glyph unicode="&#xf7;" horiz-adv-x="966" d="M132 487v162h702v-162h-702zM369 104v229h228v-229h-228zM369 803v229h228v-229h-228z" />
<glyph unicode="&#xf8;" horiz-adv-x="1180" d="M124 325v423q0 164 122.5 256.5t343.5 92.5q79 0 147 -13l73 203l91 -27l-72 -200q109 -40 168 -119.5t59 -192.5v-423q0 -106 -44 -184.5t-145.5 -121t-276.5 -42.5q-80 0 -146 10l-72 -201l-93 27l70 196q-120 38 -172.5 119.5t-52.5 196.5zM396 313q0 -61 29 -95 l245 682q-34 7 -80 7q-88 0 -141 -32.5t-53 -114.5v-447zM511 173q33 -7 79 -7q87 0 140.5 32.5t53.5 114.5v447q0 60 -29 94z" />
<glyph unicode="&#xf9;" horiz-adv-x="1251" d="M152 291v783h272v-739q0 -56 28 -89.5t70 -48.5t84 -15q50 0 99 17t81.5 54t32.5 97v724h272v-1074h-256l-8 118q-32 -67 -131 -104t-211 -37q-154 0 -243.5 89t-89.5 225zM373 1621h268l122 -365h-149z" />
<glyph unicode="&#xfa;" horiz-adv-x="1251" d="M152 291v783h272v-739q0 -56 28 -89.5t70 -48.5t84 -15q50 0 99 17t81.5 54t32.5 97v724h272v-1074h-256l-8 118q-32 -67 -131 -104t-211 -37q-154 0 -243.5 89t-89.5 225zM503 1255l122 365h268l-241 -365h-149z" />
<glyph unicode="&#xfb;" horiz-adv-x="1251" d="M152 291v783h272v-739q0 -56 28 -89.5t70 -48.5t84 -15q50 0 99 17t81.5 54t32.5 97v724h272v-1074h-256l-8 118q-32 -67 -131 -104t-211 -37q-154 0 -243.5 89t-89.5 225zM258 1256l277 365h198l277 -365h-179l-197 184l-197 -184h-179z" />
<glyph unicode="&#xfc;" horiz-adv-x="1251" d="M152 291v783h272v-739q0 -56 28 -89.5t70 -48.5t84 -15q50 0 99 17t81.5 54t32.5 97v724h272v-1074h-256l-8 118q-32 -67 -131 -104t-211 -37q-154 0 -243.5 89t-89.5 225zM296 1311v233h264v-233h-264zM705 1311v233h265v-233h-265z" />
<glyph unicode="&#xfd;" horiz-adv-x="1103" d="M34 1074h271l267 -728l226 728h271l-371 -1062q-87 -249 -221.5 -361.5t-328.5 -135.5l-20 225q101 15 174.5 75.5t119.5 181.5l17 44zM422 1255l122 365h268l-241 -365h-149z" />
<glyph unicode="&#xfe;" horiz-adv-x="1206" d="M160 -410v1926h273v-480q47 26 108 42.5t129 16.5q195 0 303.5 -94.5t108.5 -249.5v-425q0 -92 -48 -172t-146 -129t-250 -49q-64 0 -114.5 12t-90.5 29v-427h-273zM433 213q29 -20 70.5 -34t112.5 -14q92 0 142.5 36.5t50.5 118.5v435q0 80 -49.5 115.5t-134.5 35.5 q-66 0 -117 -21t-75 -44v-628z" />
<glyph unicode="&#xff;" horiz-adv-x="1103" d="M34 1074h271l267 -728l226 728h271l-371 -1062q-87 -249 -221.5 -361.5t-328.5 -135.5l-20 225q101 15 174.5 75.5t119.5 181.5l17 44zM215 1311v233h264v-233h-264zM624 1311v233h265v-233h-265z" />
<glyph unicode="&#x152;" horiz-adv-x="1734" d="M160 506v452q0 108 24 202t84.5 165t169.5 111t279 40h889v-224h-426v-394h343v-213h-343v-421h428v-224h-891q-169 0 -278 37t-170 105t-85 160.5t-24 203.5zM458 478q0 -71 25 -128.5t87 -91t172 -33.5h144v1019h-145q-109 0 -170.5 -34.5t-87 -92.5t-25.5 -130v-509z " />
<glyph unicode="&#x153;" horiz-adv-x="1780" d="M124 326v423q0 166 126 257t334 91q99 0 180 -29t139 -91q59 63 139 91.5t178 28.5q245 0 347.5 -95t102.5 -257v-233h-628v-191q0 -88 50 -121.5t135 -33.5q61 0 103 12.5t64 53.5t22 125h254q0 -153 -51.5 -235t-151.5 -113.5t-245 -31.5q-191 0 -317 113 q-52 -51 -130 -82t-191 -31q-253 0 -356.5 94.5t-103.5 254.5zM397 314q0 -82 47.5 -115t139.5 -33q86 0 135.5 33t49.5 115v448q0 80 -46.5 112.5t-138.5 32.5q-85 0 -136 -32t-51 -113v-448zM1042 655h371v110q0 89 -52 115.5t-134 26.5t-133.5 -30.5t-51.5 -116.5v-105z " />
<glyph unicode="&#x178;" horiz-adv-x="1304" d="M0 1476h313l346 -634l345 634h300l-499 -909v-567h-296v567zM315 1683v233h264v-233h-264zM724 1683v233h265v-233h-265z" />
<glyph unicode="&#x2c6;" horiz-adv-x="952" d="M100 1165l277 365h198l277 -365h-179l-197 184l-197 -184h-179z" />
<glyph unicode="&#x2dc;" horiz-adv-x="906" d="M100 1247q0 140 62.5 200t164.5 60q66 0 106.5 -15.5t67 -35.5t48.5 -35.5t51 -15.5q30 0 51 19.5t21 66.5h134q0 -140 -62.5 -200t-164.5 -60q-65 0 -106.5 15.5t-69.5 36t-51.5 36t-53.5 15.5q-28 0 -46 -20.5t-18 -66.5h-134z" />
<glyph unicode="&#x2000;" horiz-adv-x="1019" />
<glyph unicode="&#x2001;" horiz-adv-x="2038" />
<glyph unicode="&#x2002;" horiz-adv-x="1019" />
<glyph unicode="&#x2003;" horiz-adv-x="2038" />
<glyph unicode="&#x2004;" horiz-adv-x="679" />
<glyph unicode="&#x2005;" horiz-adv-x="509" />
<glyph unicode="&#x2006;" horiz-adv-x="339" />
<glyph unicode="&#x2007;" horiz-adv-x="339" />
<glyph unicode="&#x2008;" horiz-adv-x="254" />
<glyph unicode="&#x2009;" horiz-adv-x="407" />
<glyph unicode="&#x200a;" horiz-adv-x="113" />
<glyph unicode="&#x2010;" horiz-adv-x="868" d="M132 474v188h604v-188h-604z" />
<glyph unicode="&#x2011;" horiz-adv-x="868" d="M132 474v188h604v-188h-604z" />
<glyph unicode="&#x2012;" horiz-adv-x="868" d="M132 474v188h604v-188h-604z" />
<glyph unicode="&#x2013;" horiz-adv-x="874" d="M0 474v188h874v-188h-874z" />
<glyph unicode="&#x2014;" horiz-adv-x="1399" d="M0 474v188h1399v-188h-1399z" />
<glyph unicode="&#x2018;" horiz-adv-x="834" d="M256 900v223q0 101 36 191t82.5 156.5t77.5 94.5l107 -46q-25 -29 -59.5 -83.5t-60.5 -122.5t-26 -137h165v-276h-322z" />
<glyph unicode="&#x2019;" horiz-adv-x="834" d="M256 1259v276h322v-223q0 -100 -36 -190.5t-82.5 -157t-77.5 -94.5l-107 46q26 29 60 83.5t60 122.5t26 137h-165z" />
<glyph unicode="&#x201a;" horiz-adv-x="874" d="M296 0v276h322v-223q0 -100 -36 -190.5t-82.5 -157t-77.5 -94.5l-107 46q26 29 60 83.5t60 122.5t26 137h-165z" />
<glyph unicode="&#x201c;" horiz-adv-x="1293" d="M256 900v223q0 101 36 191t82.5 156.5t77.5 94.5l107 -46q-25 -29 -59.5 -83.5t-60.5 -122.5t-26 -137h165v-276h-322zM715 900v223q0 101 36 191t82.5 156.5t77.5 94.5l107 -46q-25 -29 -59.5 -83.5t-60.5 -122.5t-26 -137h165v-276h-322z" />
<glyph unicode="&#x201d;" horiz-adv-x="1333" d="M296 1259v276h322v-223q0 -100 -36 -190.5t-82.5 -157t-77.5 -94.5l-107 46q26 29 60 83.5t60 122.5t26 137h-165zM755 1259v276h322v-223q0 -100 -36 -190.5t-82.5 -157t-77.5 -94.5l-107 46q26 29 60 83.5t60 122.5t26 137h-165z" />
<glyph unicode="&#x201e;" horiz-adv-x="1333" d="M296 0v276h322v-223q0 -100 -36 -190.5t-82.5 -157t-77.5 -94.5l-107 46q26 29 60 83.5t60 122.5t26 137h-165zM755 0v276h322v-223q0 -100 -36 -190.5t-82.5 -157t-77.5 -94.5l-107 46q26 29 60 83.5t60 122.5t26 137h-165z" />
<glyph unicode="&#x2022;" horiz-adv-x="1024" d="M205 600q0 147 73 226t235 79q161 0 234 -79t73 -226t-73.5 -226t-234.5 -79t-234 78.5t-73 226.5z" />
<glyph unicode="&#x2026;" horiz-adv-x="1928" d="M235 0v284h298v-284h-298zM815 0v284h298v-284h-298zM1395 0v284h298v-284h-298z" />
<glyph unicode="&#x202f;" horiz-adv-x="407" />
<glyph unicode="&#x2039;" horiz-adv-x="612" d="M67 530l273 450l147 -70l-207 -380l207 -380l-140 -70z" />
<glyph unicode="&#x203a;" horiz-adv-x="612" d="M154 150l207 380l-207 380l140 70l280 -450l-273 -450z" />
<glyph unicode="&#x205f;" horiz-adv-x="509" />
<glyph unicode="&#x20ac;" horiz-adv-x="1490" d="M46 506v130h114v187h-114v130h114v24q0 112 23.5 207.5t88 166.5t187.5 110.5t321 39.5q189 0 304.5 -38.5t175.5 -108.5t81 -164.5t21 -206.5v-18l-291 -34v75q0 104 -26 160.5t-89 79t-176 22.5q-165 0 -244 -52t-79 -204v-59h331v-130h-331v-187h331v-130h-331v-52 q0 -101 35 -154.5t106.5 -73t182.5 -19.5q113 0 176 19.5t88.5 74t25.5 159.5v47h291v-27q0 -109 -20 -201t-79 -160.5t-175 -106.5t-308 -38q-197 0 -319.5 38.5t-187.5 107.5t-89 162t-24 202v22h-114z" />
<glyph unicode="&#x2122;" horiz-adv-x="1843" d="M133 1302v144h559v-144h-182v-536h-195v536h-182zM825 766v680h218l184 -343l186 343h216v-680h-167v473l-152 -308h-161l-159 308v-473h-165z" />
<glyph unicode="&#x25fc;" horiz-adv-x="1075" d="M0 0v1075h1075v-1075h-1075z" />
<glyph unicode="&#xfb03;" horiz-adv-x="1917" d="M86 901v173h143v31q0 191 85.5 291t276.5 100h126l13 -189h-90q-88 0 -113.5 -37.5t-25.5 -91.5v-104h374v51q0 191 85.5 291t276.5 100h126l13 -189h-90q-88 0 -113.5 -36t-25.5 -105v-112h646v-1074h-272v901h-374v-901h-272v901h-374v-901h-272v901h-143zM1519 1250 v265h275v-265h-275z" />
<glyph unicode="&#xfb04;" horiz-adv-x="2065" d="M86 901v173h143v31q0 191 85.5 291t276.5 100h126l13 -189h-90q-88 0 -113.5 -37.5t-25.5 -91.5v-104h374v51q0 191 85.5 291t276.5 100h382v-1h174v-1158q0 -88 41.5 -127.5t150.5 -39.5h34l-21 -202h-114q-179 0 -271 81.5t-92 283.5v974h-235q-88 0 -113.5 -36 t-25.5 -105v-112h214v-173h-214v-901h-272v901h-374v-901h-272v901h-143z" />
</font>
</defs>
</svg>
