<?xml version="1.0" standalone="no"?>
<!DOCTYPE svg PUBLIC "-//W3C//DTD SVG 1.1//EN" "http://www.w3.org/Graphics/SVG/1.1/DTD/svg11.dtd" >
<svg xmlns="http://www.w3.org/2000/svg" xmlns:xlink="http://www.w3.org/1999/xlink" version="1.1">
<metadata></metadata>
<defs>
<font id="mondaregular" horiz-adv-x="1250" >
<font-face units-per-em="2048" ascent="1638" descent="-410" />
<missing-glyph horiz-adv-x="512" />
<glyph unicode="&#xfb01;" horiz-adv-x="1340" d="M110 918v142h177v161q0 149 81.5 216.5t244.5 67.5h119l12 -133h-116q-86 0 -119.5 -38t-33.5 -95v-179h663v-1060h-188v918h-475v-918h-188v918h-177zM947 1297v208h194v-208h-194z" />
<glyph unicode="&#xfb02;" horiz-adv-x="1461" d="M110 918v142h177v161q0 149 81.5 216.5t244.5 67.5h530v-1149q0 -86 16 -130.5t58.5 -60t120.5 -15.5h33l-22 -158h-54q-116 0 -191.5 27t-112 106t-36.5 233v1014h-327q-86 0 -119.5 -38t-33.5 -95v-179h257v-142h-257v-918h-188v918h-177z" />
<glyph horiz-adv-x="0" />
<glyph horiz-adv-x="682" />
<glyph unicode="&#xd;" horiz-adv-x="600" />
<glyph unicode=" "  horiz-adv-x="512" />
<glyph unicode="&#x09;" horiz-adv-x="512" />
<glyph unicode="&#xa0;" horiz-adv-x="512" />
<glyph unicode="!" horiz-adv-x="768" d="M265 0v236h234v-236h-234zM286 1446h202q0 -84 -6 -206t-16.5 -266.5t-25 -299t-31.5 -303.5h-56q-15 148 -27 302t-21 299t-14 267t-5 207z" />
<glyph unicode="&#x22;" horiz-adv-x="890" d="M176 1506h205l-49 -576h-112zM509 1506h205l-49 -576h-112z" />
<glyph unicode="#" horiz-adv-x="1284" d="M86 475v119h203l57 316h-236v119h258l76 417h170l-74 -417h301l76 417h170l-74 -417h185v-119h-206l-56 -316h238v-119h-259l-84 -475h-178l87 475h-298l-84 -475h-178l87 475h-181zM463 594h299l57 316h-300z" />
<glyph unicode="$" horiz-adv-x="1304" d="M144 113l71 154q73 -43 183.5 -79.5t229.5 -45.5v536l-175 58q-150 50 -216 127.5t-66 225.5q0 134 59.5 216t163 120.5t234.5 42.5v197h95v-198q155 -5 255 -33t163 -67l-49 -157q-61 33 -151 62.5t-218 33.5v-469l156 -53q148 -50 216.5 -132t68.5 -246 q0 -194 -103 -307t-338 -120v-198h-95v198q-141 7 -261 41t-223 93zM366 1088q0 -66 28.5 -107.5t120.5 -73.5l113 -38v436q-127 -6 -194.5 -51t-67.5 -166zM723 141q154 7 204.5 77.5t50.5 218.5q0 61 -33 103.5t-143 79.5l-79 26v-505z" />
<glyph unicode="%" horiz-adv-x="1872" d="M164 1057v53q0 175 62.5 273t235.5 98t237.5 -97.5t64.5 -272.5v-54q0 -114 -27.5 -199.5t-93.5 -132.5t-181 -47t-180 47.5t-91.5 132.5t-26.5 199zM307 1040q0 -70 10 -126t43 -88t102 -32t102.5 32t44 88t10.5 126v93q0 69 -9 121.5t-42.5 81.5t-105.5 29 q-71 0 -104 -29t-42 -81t-9 -120v-95zM580 0l543 1446h149l-538 -1446h-154zM1108 360v53q0 175 62.5 273t235.5 98t237.5 -97.5t64.5 -272.5v-54q0 -114 -27.5 -199.5t-93.5 -132.5t-181 -47t-180 47t-91.5 132.5t-26.5 199.5zM1251 343q0 -70 10 -126t43 -88t102 -32 t102.5 32t44 88t10.5 126v93q0 69 -9 121t-42.5 81.5t-105.5 29.5q-71 0 -104 -29t-42 -81t-9 -120v-95z" />
<glyph unicode="&#x26;" horiz-adv-x="1500" d="M176 439q0 151 59 242.5t204 134.5q-79 73 -127 142t-48 184q0 91 36.5 168.5t129 125t259.5 47.5q144 0 240.5 -20.5t145.5 -80t49 -177.5v-101h-166v60q0 104 -56.5 135.5t-197.5 31.5q-105 0 -159 -27t-72.5 -73.5t-18.5 -104.5t26 -104.5t97 -114.5l523 -497 q1 11 1 22v23v323h175v-278q0 -65 -3 -125.5t-16 -113.5l175 -167l-104 -113l-142 133q-56 -64 -166 -101t-300 -37q-166 0 -272.5 38t-165.5 103t-82.5 148.5t-23.5 173.5zM378 445q0 -154 75 -236.5t267 -82.5q140 0 222.5 17t120.5 87l-525 493q-75 -21 -108.5 -63.5 t-42.5 -98t-9 -116.5z" />
<glyph unicode="'" horiz-adv-x="557" d="M176 1506h205l-49 -576h-112z" />
<glyph unicode="(" horiz-adv-x="768" d="M172 380v639q0 198 44.5 318.5t147.5 175t280 54.5v-151q-112 0 -173 -32.5t-84 -110.5t-23 -217v-707q0 -135 22.5 -211t83.5 -107t174 -31v-150q-178 0 -281 52.5t-147 169t-44 308.5z" />
<glyph unicode=")" horiz-adv-x="768" d="M122 0q114 0 174.5 31t83 107t22.5 211v707q0 139 -23 217t-83.5 110.5t-173.5 32.5v151q177 0 280.5 -54.5t147.5 -175t44 -318.5v-639q0 -192 -44 -308.5t-147 -169t-281 -52.5v150z" />
<glyph unicode="*" horiz-adv-x="1024" d="M99 911l290 117l-280 142l95 153l247 -190l-28 313h178l-30 -325l273 174l81 -161l-291 -117l280 -142l-95 -153l-247 190l29 -313h-178l29 325l-273 -174z" />
<glyph unicode="+" horiz-adv-x="1024" d="M162 494v148h275v326h151v-326h274v-148h-274v-338h-151v338h-275z" />
<glyph unicode="," horiz-adv-x="641" d="M192 0v233h257v-183q0 -95 -31 -173t-71.5 -133t-69.5 -82l-81 44q24 28 56 71.5t56.5 100t24.5 122.5h-141z" />
<glyph unicode="-" horiz-adv-x="904" d="M172 499v143h560v-143h-560z" />
<glyph unicode="." horiz-adv-x="628" d="M186 0v242h256v-242h-256z" />
<glyph unicode="/" horiz-adv-x="768" d="M64 0l457 1506h183l-453 -1506h-187z" />
<glyph unicode="0" d="M123 636v154q0 92 6.5 187.5t31 183t78 157t147.5 110t239 40.5t239 -40.5t147.5 -110t78 -157t31 -183t6.5 -187.5v-154q0 -90 -6.5 -183t-31.5 -178t-78.5 -152t-147 -106t-238.5 -39t-238.5 39t-147 106t-78.5 152t-31.5 178t-6.5 183zM325 619q0 -96 7.5 -182.5 t35.5 -153t89 -105t168 -38.5t168 38.5t89 105t35.5 153t7.5 182.5v197q0 96 -7.5 184.5t-36 157t-89 108.5t-167.5 40q-106 0 -167 -40t-89.5 -108.5t-36 -157t-7.5 -184.5v-197z" />
<glyph unicode="1" d="M206 0v155h401v1122l-374 -40l-18 159l429 50h164v-1291h354v-155h-956z" />
<glyph unicode="2" d="M164 1024q0 239 128 341.5t347 102.5q156 0 257 -54.5t150 -147t49 -207.5q0 -96 -23.5 -167.5t-77.5 -142.5t-146 -168l-402 -425h641v-156h-856l-19 158l489 531q73 79 118 135.5t65.5 110t20.5 122.5q0 139 -60 194t-191 55q-105 0 -168.5 -21.5t-92 -82t-28.5 -178.5 h-201z" />
<glyph unicode="3" d="M208 431h192q8 -121 38.5 -183.5t91.5 -85t160 -22.5q130 0 187.5 66t57.5 193q0 112 -24.5 175.5t-99 90t-224.5 26.5v149q116 0 181.5 15.5t95.5 47t37.5 78t7.5 107.5q0 102 -52 160t-181 58q-89 0 -148 -18.5t-88.5 -78.5t-29.5 -184h-192q0 184 60.5 279.5 t164.5 129.5t232 34q187 0 304.5 -90t117.5 -287q0 -143 -53.5 -223t-180.5 -100q124 -25 193.5 -105.5t69.5 -264.5q0 -207 -117 -313.5t-330 -106.5q-161 0 -258 42.5t-146.5 141.5t-66.5 269z" />
<glyph unicode="4" d="M143 351v157l529 938h209l-515 -940h417v331h167v-331h212v-155h-212v-351h-167v351h-640z" />
<glyph unicode="5" d="M173 107l53 153q70 -46 128 -72t121.5 -37t148.5 -11q140 0 222 71t82 228q0 153 -65 238t-208 85q-82 0 -151.5 -34.5t-123.5 -75.5l-144 60l51 734h737v-165h-576l-30 -449q101 79 261 79q217 0 327.5 -120.5t110.5 -341.5q0 -163 -63 -267.5t-172.5 -154t-249.5 -49.5 q-133 0 -240 32t-219 97z" />
<glyph unicode="6" d="M178 436q0 98 24 187t70 183t112 208l249 432h200l-360 -611q45 24 92.5 33.5t113.5 9.5q224 0 338.5 -120.5t114.5 -311.5q0 -126 -46.5 -232.5t-151.5 -171t-281 -64.5q-177 0 -281 62.5t-149 166.5t-45 229zM365 426q0 -74 24.5 -139.5t88.5 -106t183 -40.5 q117 0 178.5 40.5t83.5 106t22 139.5q0 73 -22.5 139t-84.5 108t-181 42q-117 0 -180.5 -42t-87.5 -108t-24 -139z" />
<glyph unicode="7" d="M178 1281v165h881v-157l-490 -1289h-211l496 1281h-676z" />
<glyph unicode="8" d="M132 380q0 131 80 228.5t214 155.5q-71 36 -131.5 82t-97.5 110.5t-37 153.5q0 93 46.5 174.5t148.5 132.5t268 51q180 0 282 -52t143.5 -132.5t41.5 -166.5q0 -118 -72 -202t-204 -141q82 -40 151 -92.5t111 -125.5t42 -175q0 -112 -48.5 -203.5t-157.5 -145.5t-289 -54 t-288 53.5t-155.5 144.5t-47.5 204zM323 386q0 -70 26 -126t93 -88t189 -32t185.5 32t87 88t23.5 126q0 76 -42 130t-111.5 94t-153.5 77q-145 -54 -221 -127t-76 -174zM347 1115q0 -62 39 -108.5t104 -83.5t144 -71q66 24 127.5 61.5t101.5 87.5t40 109q0 47 -17.5 92 t-75 74.5t-179.5 29.5q-108 0 -170 -27.5t-88 -71t-26 -92.5z" />
<glyph unicode="9" d="M151 1000q0 127 46.5 233t152 170.5t281.5 64.5q177 0 281 -62.5t149 -166.5t45 -229q0 -98 -24 -187t-70 -183t-112 -208l-249 -432h-200l360 611q-45 -24 -92.5 -33.5t-113.5 -9.5q-225 0 -339.5 120.5t-114.5 311.5zM338 1020q0 -72 22.5 -138.5t85 -108.5t181.5 -42 q118 0 181 42t87 108.5t24 138.5q0 75 -24.5 140t-88.5 105.5t-183 40.5q-118 0 -179 -40.5t-83.5 -105.5t-22.5 -140z" />
<glyph unicode=":" horiz-adv-x="768" d="M256 0v242h256v-242h-256zM256 719v242h256v-242h-256z" />
<glyph unicode=";" horiz-adv-x="768" d="M248 719v242h256v-242h-256zM264 0v233h257v-183q0 -95 -31 -173t-71.5 -133t-69.5 -82l-81 44q24 28 56 71.5t56.5 100t24.5 122.5h-141z" />
<glyph unicode="&#x3c;" horiz-adv-x="1024" d="M162 484l700 -350v158l-559 271l559 271v158l-700 -350v-158z" />
<glyph unicode="=" horiz-adv-x="1024" d="M162 324v148h700v-148h-700zM162 664v148h700v-148h-700z" />
<glyph unicode="&#x3e;" horiz-adv-x="1024" d="M162 134v158l559 271l-559 271v158l700 -350v-158z" />
<glyph unicode="?" horiz-adv-x="1240" d="M179 1039v32q0 152 48.5 238.5t154 122.5t275.5 36q131 0 216 -32t134 -84t69 -114.5t20 -123.5q0 -91 -33 -165.5t-92 -145.5t-137 -153l-208 -219h-160l274 364q65 86 104 153t39 155q0 89 -46 146t-180 57q-162 0 -221.5 -57t-59.5 -157v-53h-197zM425 0v236h234v-236 h-234z" />
<glyph unicode="@" horiz-adv-x="1468" d="M148 237v393q0 488 570 488q278 0 406 -96t128 -295v-403q0 -71 23.5 -95t92.5 -24l-20 -148h-40q-103 0 -152 39t-56 110q-46 -82 -125.5 -124t-197.5 -42q-90 0 -160 37.5t-109.5 100.5t-39.5 140q0 248 282 329l323 93q0 118 -81.5 172t-273.5 54q-199 0 -290.5 -70.5 t-91.5 -224.5v-468q0 -191 112.5 -280t331.5 -89q125 0 239.5 25.5t207.5 68.5l50 -141q-98 -44 -228.5 -72t-268.5 -28q-307 0 -469.5 136.5t-162.5 413.5zM652 333q0 -64 43.5 -104.5t123.5 -40.5q86 0 157.5 46t96.5 113v263l-278 -94q-79 -27 -111 -71.5t-32 -111.5z " />
<glyph unicode="A" horiz-adv-x="1428" d="M86 0l539 1446h177l540 -1446h-205l-97 282h-647l-98 -282h-209zM445 430h544l-270 785z" />
<glyph unicode="B" horiz-adv-x="1420" d="M218 0v1446h524q201 0 304 -46.5t139.5 -135.5t36.5 -215q0 -96 -41 -169t-142 -107q127 -29 190 -126.5t63 -235.5q0 -215 -121 -313t-385 -98h-568zM420 149h351q112 0 183.5 22t105.5 83t34 179q0 66 -22.5 126.5t-81.5 98.5t-170 38h-400v-547zM420 833h371 q137 0 183.5 58.5t46.5 155.5q0 105 -26.5 158t-94 71.5t-189.5 18.5h-291v-462z" />
<glyph unicode="C" horiz-adv-x="1456" d="M182 486v454q0 115 22.5 211.5t84 167.5t175 110t295.5 39q219 0 336 -52.5t161 -154.5t44 -251v-13l-191 -17v27q0 131 -33.5 195t-110.5 84t-206 20q-127 0 -210 -28.5t-124 -100t-41 -200.5v-522q0 -128 42 -196t126.5 -93.5t212.5 -25.5q126 0 201.5 17t109 77.5 t33.5 189.5v24h191v-10q0 -109 -20.5 -194.5t-76.5 -144.5t-162.5 -90t-279.5 -31q-181 0 -295 37t-175.5 104.5t-85 160.5t-23.5 206z" />
<glyph unicode="D" horiz-adv-x="1522" d="M218 0v1446h574q201 0 321 -64.5t173.5 -174.5t53.5 -248v-477q0 -235 -135.5 -358.5t-410.5 -123.5h-576zM420 150h354q104 0 186.5 22.5t130.5 89.5t48 200v509q0 134 -48.5 203.5t-131 95t-185.5 25.5h-354v-1145z" />
<glyph unicode="E" horiz-adv-x="1255" d="M218 0v1446h903v-150h-702v-476h620v-150h-620v-520h714v-150h-915z" />
<glyph unicode="F" horiz-adv-x="1159" d="M218 0v1446h821v-150h-620v-482h584v-150h-584v-664h-201z" />
<glyph unicode="G" horiz-adv-x="1556" d="M186 486v454q0 115 26.5 211.5t92.5 167.5t183.5 110t299.5 39q175 0 284.5 -32.5t168.5 -91t81 -137t22 -170.5v-22l-184 -15v22q0 112 -30.5 173.5t-111 86t-230.5 24.5q-127 0 -216.5 -28.5t-136.5 -100t-47 -200.5v-522q0 -128 46.5 -196t136 -93.5t217.5 -25.5 q129 0 211 25.5t120.5 93.5t38.5 196v133h-343v147h545v-735h-110l-25 246q-18 -118 -120 -193t-317 -75q-181 0 -298.5 37t-183.5 104.5t-93 160.5t-27 206z" />
<glyph unicode="H" horiz-adv-x="1528" d="M212 0v1446h201v-639h702v639h201v-1446h-201v659h-702v-659h-201z" />
<glyph unicode="I" horiz-adv-x="1132" d="M190 0v150h276v1147h-276v149h752v-149h-275v-1147h275v-150h-752z" />
<glyph unicode="J" horiz-adv-x="1206" d="M102 70l55 155q24 -11 81 -29.5t131 -33t147 -14.5q143 0 207 73.5t64 213.5v846h-553v165h754v-1015q0 -205 -111 -326.5t-355 -121.5q-84 0 -168.5 14.5t-151.5 35t-100 37.5z" />
<glyph unicode="K" horiz-adv-x="1418" d="M218 0v1446h201v-789l684 789h218l-551 -636l580 -810h-223l-488 687l-220 -250v-437h-201z" />
<glyph unicode="L" horiz-adv-x="1145" d="M218 0v1446h201v-1291h649v-155h-850z" />
<glyph unicode="M" horiz-adv-x="1778" d="M218 0v1446h185l492 -800l487 800h178v-1446h-190v1121l-405 -663h-149l-406 661v-1119h-192z" />
<glyph unicode="N" horiz-adv-x="1594" d="M218 0v1446h153l828 -1157v1157h177v-1446h-179l-802 1104v-1104h-177z" />
<glyph unicode="O" horiz-adv-x="1546" d="M186 486v455q0 115 25.5 211t90.5 167t181.5 110t298.5 39q175 0 288 -41t176 -114.5t88.5 -171.5t25.5 -213v-428q0 -111 -25.5 -206.5t-89 -166t-176.5 -110t-287 -39.5q-181 0 -297.5 37t-181.5 104.5t-91 160.5t-26 206zM388 455q0 -128 45 -196t133 -93.5t216 -25.5 q129 0 212.5 25.5t124 93.5t40.5 196v523q0 129 -41 200t-124.5 99.5t-211.5 28.5q-127 0 -215 -28.5t-133.5 -99.5t-45.5 -200v-523z" />
<glyph unicode="P" horiz-adv-x="1326" d="M218 0v1446h578q182 0 292 -104t110 -351q0 -173 -50 -274t-141 -144.5t-214 -43.5h-373v-529h-202zM420 682h377q88 0 130 42.5t55.5 110.5t13.5 142q0 71 -11 144t-51.5 122.5t-131.5 49.5h-382v-611z" />
<glyph unicode="Q" horiz-adv-x="1542" d="M186 486v455q0 115 25.5 211t90.5 167t181.5 110t298.5 39q175 0 288 -41t176 -114.5t88.5 -171.5t25.5 -213v-428q0 -135 -39 -246t-139.5 -182t-286.5 -89l190 -291l-141 -76l-230 363q-213 10 -327 76t-157.5 177t-43.5 254zM388 455q0 -128 45 -196t133 -93.5 t216 -25.5q129 0 212.5 25.5t124 93.5t40.5 196v523q0 129 -41 200t-124.5 99.5t-211.5 28.5q-127 0 -215 -28.5t-133.5 -99.5t-45.5 -200v-523z" />
<glyph unicode="R" horiz-adv-x="1464" d="M218 0v1446h645q122 0 212.5 -39.5t141 -133t50.5 -255.5q0 -175 -56.5 -259.5t-147.5 -122.5l307 -636h-207l-287 600h-456v-600h-202zM420 752h426q88 0 135 33t65.5 89.5t18.5 125.5q0 70 -11.5 137t-52.5 111.5t-132 44.5h-449v-541z" />
<glyph unicode="S" horiz-adv-x="1304" d="M144 113l71 154q83 -49 211 -88t261 -39q118 0 180.5 31t86.5 96.5t24 169.5q0 61 -33 103.5t-143 79.5l-349 116q-150 50 -216 127.5t-66 225.5q0 139 63.5 222t173.5 120t248 37q185 0 300 -28.5t185 -72.5l-49 -157q-65 35 -162.5 65.5t-238.5 30.5q-157 0 -241 -41 t-84 -177q0 -66 28.5 -107.5t120.5 -73.5l364 -123q148 -50 216.5 -132t68.5 -246q0 -200 -110.5 -314t-362.5 -114q-161 0 -297 34.5t-250 100.5z" />
<glyph unicode="T" horiz-adv-x="1204" d="M84 1281v165h1036v-165h-418v-1281h-201v1281h-417z" />
<glyph unicode="U" horiz-adv-x="1538" d="M200 473v973h202v-994q0 -133 52.5 -200t138.5 -89.5t186 -22.5q102 0 182.5 22.5t127.5 89.5t47 200v994h202v-973q0 -100 -24.5 -189.5t-85.5 -158.5t-170 -108t-279 -39q-177 0 -290.5 39t-176.5 107t-87.5 157.5t-24.5 191.5z" />
<glyph unicode="V" horiz-adv-x="1386" d="M86 1446h207l399 -1152l399 1152h209l-521 -1446h-177z" />
<glyph unicode="W" horiz-adv-x="2048" d="M112 1446h184l307 -1100l315 1100h215l329 -1100l291 1100h183l-394 -1446h-152l-353 1232l-363 -1232h-152z" />
<glyph unicode="X" horiz-adv-x="1336" d="M94 0l464 740l-442 706h217l344 -548l340 548h216l-453 -711l462 -735h-220l-361 577l-351 -577h-216z" />
<glyph unicode="Y" horiz-adv-x="1318" d="M48 1446h213l400 -702l402 702h207l-509 -878v-568h-201v568z" />
<glyph unicode="Z" horiz-adv-x="1242" d="M180 0v150l682 1131h-651v165h872v-151l-681 -1130h694v-165h-916z" />
<glyph unicode="[" horiz-adv-x="768" d="M256 -76v1605h378v-133h-190v-1338h190v-134h-378z" />
<glyph unicode="\" horiz-adv-x="768" d="M64 1506h187l453 -1506h-183z" />
<glyph unicode="]" horiz-adv-x="768" d="M195 57h190v1338h-190v134h378v-1605h-378v133z" />
<glyph unicode="^" horiz-adv-x="1257" d="M154 626l359 657h222l368 -657h-193l-282 535l-280 -535h-194z" />
<glyph unicode="_" horiz-adv-x="790" d="M0 -94h790v-143h-790v143z" />
<glyph unicode="`" horiz-adv-x="560" d="M100 1505h225l135 -350h-128z" />
<glyph unicode="a" horiz-adv-x="1172" d="M132 268q0 80 31.5 134.5t119 99t256.5 93.5q88 26 141 46t77 51t24 89q0 43 -13.5 78t-55 56t-126.5 21q-106 0 -155 -22t-62.5 -57.5t-13.5 -78.5v-47h-181v48q0 157 105 229t313 72q210 0 293.5 -98t83.5 -262v-452q0 -84 21.5 -108t89.5 -24l-22 -144h-38 q-106 0 -153 41.5t-71 116.5q-23 -36 -63.5 -76t-105 -68t-162.5 -28q-117 0 -190.5 40.5t-108 107t-34.5 142.5zM311 274q0 -80 41.5 -118t135.5 -38q57 0 119 24.5t110.5 65t63.5 89.5v279q-22 -22 -76.5 -57.5t-155.5 -64.5q-123 -35 -180.5 -72t-57.5 -108z" />
<glyph unicode="b" horiz-adv-x="1204" d="M186 0v1505h188v-495q51 29 128 49.5t162 20.5q196 0 294 -97t98 -247v-384q0 -106 -50 -191t-146 -134t-234 -49q-94 0 -164.5 33.5t-112.5 59.5l-24 -71h-139zM374 188q41 -23 99 -42.5t125 -19.5q111 0 190.5 54.5t79.5 151.5v418q0 95 -61.5 140.5t-165.5 45.5 q-66 0 -140 -21t-127 -45v-682z" />
<glyph unicode="c" horiz-adv-x="1106" d="M148 344v404q0 150 114.5 241t311.5 91q127 0 221 -29.5t145.5 -106.5t51.5 -220l-179 -17q0 97 -22 146t-73 66t-139 17q-121 0 -182 -43.5t-61 -149.5v-415q0 -114 64.5 -160t178.5 -46q93 0 141.5 13.5t68.5 54t27 120.5h174q-10 -122 -52 -195t-128.5 -105 t-230.5 -32q-158 0 -252.5 50.5t-136.5 134t-42 181.5z" />
<glyph unicode="d" horiz-adv-x="1200" d="M148 335v400q0 160 106 252.5t337 92.5q50 0 118 -11t117 -29v465h188v-1505h-128l-31 70q-46 -36 -125.5 -64t-161.5 -28q-152 0 -244.5 47t-134 127.5t-41.5 182.5zM336 321q0 -99 70.5 -147t173.5 -48q80 0 147 22t99 41v703q-42 20 -104.5 32t-128.5 12 q-111 0 -184 -41t-73 -139v-435z" />
<glyph unicode="e" horiz-adv-x="1138" d="M148 374v369q0 150 103 243.5t331 93.5q218 0 321 -85.5t103 -236.5v-252h-670v-149q0 -129 51.5 -182t201.5 -53q89 0 140.5 6.5t76 40t32.5 113.5h166q-13 -125 -54.5 -190.5t-127.5 -89.5t-233 -24q-237 0 -339 99t-102 297zM336 633h488v145q0 96 -66.5 127 t-175.5 31q-112 0 -179 -39t-67 -137v-127z" />
<glyph unicode="f" horiz-adv-x="790" d="M110 918v142h177v161q0 149 81.5 216.5t244.5 67.5h119l12 -133h-116q-86 0 -119.5 -38t-33.5 -95v-179h257v-142h-257v-918h-188v918h-177z" />
<glyph unicode="g" horiz-adv-x="1182" d="M148 379v349q0 160 97.5 256t304.5 96q54 0 111.5 -16t101.5 -40t59 -49v85h188v-1035q0 -124 -40.5 -222t-136 -154.5t-260.5 -56.5q-107 0 -184 9t-136 31l42 141q43 -16 119 -27t150 -11q137 0 197.5 58t60.5 176v147q-30 -28 -80.5 -44.5t-102.5 -24t-89 -7.5 q-203 0 -302.5 87t-99.5 252zM336 350q0 -95 70 -130.5t173 -35.5q105 0 163 31t80 49v526q0 69 -59.5 107.5t-184.5 38.5q-111 0 -176.5 -45t-65.5 -143v-398z" />
<glyph unicode="h" horiz-adv-x="1224" d="M186 0v1505h188v-545q47 54 124 87t192 33q131 0 210 -41.5t114.5 -111.5t35.5 -154v-773h-188v783q0 79 -61 116t-159 37q-138 0 -203 -50.5t-65 -127.5v-758h-188z" />
<glyph unicode="i" horiz-adv-x="596" d="M203 1297v208h194v-208h-194zM206 0v1060h188v-1060h-188z" />
<glyph unicode="j" horiz-adv-x="602" d="M13 -197h29q67 0 108.5 13t61.5 54t20 126v1064h188v-1053q0 -156 -37.5 -233t-109.5 -102t-175 -25h-66zM229 1297v208h194v-208h-194z" />
<glyph unicode="k" horiz-adv-x="1145" d="M186 0v1505h188v-981l507 536h206l-431 -466l474 -594h-217l-380 492l-159 -158v-334h-188z" />
<glyph unicode="l" horiz-adv-x="696" d="M190 358v1147h188v-1149q0 -86 16 -130.5t58 -60t121 -15.5h33l-22 -158h-54q-116 0 -191.5 27t-112 106t-36.5 233z" />
<glyph unicode="m" horiz-adv-x="1860" d="M186 0v1060h188v-103q47 54 118 88.5t186 34.5q123 0 198.5 -38.5t112.5 -100.5q69 68 150.5 103.5t196.5 35.5q131 0 207 -42.5t108.5 -113t32.5 -154.5v-770h-188v781q0 79 -55 117t-153 38q-138 0 -197 -52t-59 -129v-755h-188v781q0 79 -58 117t-156 38 q-138 0 -197 -52t-59 -129v-755h-188z" />
<glyph unicode="n" horiz-adv-x="1226" d="M186 0v1060h188v-103q47 54 123 88.5t191 34.5q131 0 210.5 -42.5t115.5 -113t36 -154.5v-770h-188v781q0 79 -62 117t-160 38q-138 0 -202 -52t-64 -129v-755h-188z" />
<glyph unicode="o" horiz-adv-x="1174" d="M148 315v427q0 98 43.5 174.5t140 120t255.5 43.5q158 0 254.5 -43.5t140.5 -120t44 -174.5v-427q0 -98 -44 -174t-140.5 -119.5t-254.5 -43.5q-159 0 -255.5 43.5t-140 119.5t-43.5 174zM336 299q0 -98 69.5 -137.5t181.5 -39.5q110 0 180.5 39.5t70.5 137.5v459 q0 98 -70.5 138t-180.5 40q-112 0 -181.5 -40t-69.5 -138v-459z" />
<glyph unicode="p" horiz-adv-x="1198" d="M186 -408v1468h148l22 -80q42 38 121.5 69t170.5 31q203 0 302.5 -99t99.5 -252v-385q0 -160 -109.5 -263t-316.5 -103q-89 0 -150.5 18.5t-99.5 37.5v-442h-188zM374 179q36 -20 96 -38.5t142 -18.5q111 0 180.5 52.5t69.5 149.5v420q0 95 -69.5 143.5t-173.5 48.5 q-66 0 -118.5 -22.5t-85 -49.5t-41.5 -40v-645z" />
<glyph unicode="q" horiz-adv-x="1200" d="M148 314v414q0 160 102.5 256t309.5 96q54 0 110 -16t98.5 -40t57.5 -49v85h188v-1468h-188v455q-49 -37 -123.5 -53t-129.5 -16q-203 0 -314 91.5t-111 244.5zM336 284q0 -95 73 -128.5t176 -33.5q105 0 169.5 31.5t71.5 47.5v609q0 44 -56.5 85t-181.5 41 q-111 0 -181.5 -45t-70.5 -143v-464z" />
<glyph unicode="r" horiz-adv-x="798" d="M186 0v1060h188v-150q23 60 83.5 96.5t137.5 52.5t147 16l-6 -161q-90 0 -173 -24.5t-136 -63.5t-53 -84v-742h-188z" />
<glyph unicode="s" horiz-adv-x="992" d="M142 64l46 138q35 -19 121 -49.5t194 -30.5q125 0 169 46t44 113q0 62 -16.5 98t-91.5 64l-252 92q-115 42 -161 99t-46 156q0 134 74 212t270 78q112 0 205.5 -17.5t151.5 -40.5l-43 -144q-30 13 -79 26t-102 22.5t-98 9.5q-129 0 -166.5 -32.5t-37.5 -104.5 q0 -49 18.5 -72.5t72.5 -44.5l249 -97q89 -34 134.5 -72.5t61.5 -92.5t16 -137t-34.5 -152.5t-111 -111t-202.5 -41.5q-148 0 -249 33t-137 53z" />
<glyph unicode="t" horiz-adv-x="832" d="M80 918v142h184l23 328h158v-328h266v-142h-266v-603q0 -105 62 -135t196 -30h21l-20 -158h-28q-217 0 -318 68t-101 243v615h-177z" />
<glyph unicode="u" horiz-adv-x="1224" d="M176 290v770h188v-771q0 -79 58 -123t156 -44q138 0 205 60t67 127v751h188v-1060h-168l-20 133q-40 -71 -116.5 -113t-192.5 -42q-130 0 -210.5 43t-117.5 114t-37 155z" />
<glyph unicode="v" horiz-adv-x="1104" d="M64 1060h189l319 -860l284 860h184l-375 -1060h-190z" />
<glyph unicode="w" horiz-adv-x="1614" d="M52 1060h172l235 -833l255 833h181l266 -831l227 831h174l-310 -1060h-175l-271 844l-271 -844h-178z" />
<glyph unicode="x" horiz-adv-x="1056" d="M64 0l364 541l-358 519h199l268 -389l260 389h198l-363 -527l368 -533h-199l-277 401l-260 -401h-200z" />
<glyph unicode="y" horiz-adv-x="1118" d="M76 1060h194l329 -846l273 846h188l-404 -1158q-54 -155 -157 -231.5t-301 -76.5v147q111 0 181 45t118 160l19 45z" />
<glyph unicode="z" horiz-adv-x="959" d="M140 0v126l497 792h-479v142h687v-125l-501 -793h510v-142h-714z" />
<glyph unicode="{" horiz-adv-x="952" d="M158 574v151h63q62 0 96 7t48.5 33.5t17.5 83t3 156.5v41q0 111 9.5 196.5t52.5 144t141.5 89t276.5 30.5v-151q-106 0 -165 -13t-85 -45t-32 -88.5t-6 -144.5v-62q0 -129 -24 -227t-80 -125q56 -28 80 -126t24 -227v-62q0 -88 6 -144.5t32 -88.5t85 -45t165 -13v-151 q-178 0 -276.5 30.5t-141.5 89t-52.5 144t-9.5 196.5v41q0 100 -3 156.5t-17.5 83t-48.5 33.5t-96 7h-63z" />
<glyph unicode="|" horiz-adv-x="658" d="M240 -167v1722h178v-1722h-178z" />
<glyph unicode="}" horiz-adv-x="952" d="M128 -56q106 0 165 13t85 45t32 89t6 144v62q0 129 24.5 227t79.5 126q-55 27 -79.5 125t-24.5 227v62q0 87 -6 144t-32 89t-85 45t-165 13v151q178 0 276.5 -30.5t141.5 -89t52.5 -144t9.5 -196.5v-41q0 -100 3 -156.5t17.5 -83t48.5 -33.5t96 -7h63v-151h-63 q-62 0 -96 -7t-48.5 -33.5t-17.5 -83t-3 -156.5v-41q0 -111 -9.5 -196.5t-52.5 -144t-141.5 -89t-276.5 -30.5v151z" />
<glyph unicode="~" horiz-adv-x="864" d="M70 1203q0 113 60 167.5t140 54.5q66 0 122.5 -27t105.5 -54.5t92 -27.5q54 0 76.5 22.5t22.5 60.5h105q0 -112 -60 -167.5t-141 -55.5q-65 0 -123 27.5t-109 55t-96 27.5q-51 0 -70.5 -23t-19.5 -60h-105z" />
<glyph unicode="&#xa1;" horiz-adv-x="768" d="M269 824v236h234v-236h-234zM280 -386q0 84 6 206t16.5 266.5t25 299t31.5 303.5h56q15 -148 27 -302t21 -299t14 -267t5 -207h-202z" />
<glyph unicode="&#xa2;" horiz-adv-x="1106" d="M148 344v404q0 142 102.5 231.5t281.5 99.5v198h95v-198q112 -5 194 -38.5t126.5 -109t44.5 -207.5l-179 -17q0 131 -41 176.5t-145 51.5v-812q72 3 110.5 19t55.5 55.5t23 112.5h174q-15 -172 -94.5 -248t-268.5 -83v-198h-95v198q-140 8 -224.5 60t-122 132t-37.5 173z M336 328q0 -102 51.5 -149t144.5 -55v810q-98 -7 -147 -51.5t-49 -139.5v-415z" />
<glyph unicode="&#xa3;" horiz-adv-x="1278" d="M166 673v125h172l34 327q10 97 55.5 178.5t127 131t198.5 49.5q70 0 152.5 -20t176.5 -66l-54 -139q-19 10 -60 26t-91.5 29t-101.5 13q-78 0 -137.5 -47.5t-73.5 -175.5l-32 -306h480v-125h-492l-53 -511h574v-162h-785l69 673h-159z" />
<glyph unicode="&#xa4;" horiz-adv-x="1149" d="M116 979l54 82l180 -124q86 81 214 81q130 0 216 -83l193 140l50 -82l-184 -133q20 -38 32 -81t12 -90q0 -62 -21 -118l171 -114l-52 -81l-164 110q-43 -60 -109.5 -93t-143.5 -33q-147 0 -240 108l-147 -108l-51 83l148 106q-29 66 -29 140q0 95 46 173zM340 690 q0 -101 64 -173.5t161 -72.5t161 72.5t64 173.5q0 102 -64 174t-161 72t-161 -72t-64 -174z" />
<glyph unicode="&#xa5;" horiz-adv-x="1318" d="M48 1446h213l400 -702l402 702h207l-292 -503h212v-124h-283l-105 -180h388v-124h-429v-515h-201v515h-429v124h388l-105 180h-283v124h210z" />
<glyph unicode="&#xa6;" horiz-adv-x="658" d="M240 -167v680h178v-680h-178zM240 848v707h178v-707h-178z" />
<glyph unicode="&#xa7;" horiz-adv-x="995" d="M138 787q0 56 20 108.5t62 91.5q-44 34 -63 80t-19 111q0 134 74 212t270 78q127 0 219.5 -19.5t157.5 -48.5l-43 -144q-52 25 -134.5 46.5t-164.5 21.5q-129 0 -166.5 -32.5t-37.5 -104.5q0 -49 18.5 -73t72.5 -44l259 -97q94 -35 141.5 -75.5t64 -97t16.5 -139.5 q0 -56 -20 -108.5t-62 -91.5q44 -34 63 -80t19 -111q0 -134 -73.5 -212t-270.5 -78q-127 0 -219.5 20t-157.5 48l43 144q53 -25 135 -46.5t164 -21.5q129 0 166.5 32.5t37.5 104.5q0 50 -18.5 73.5t-72.5 43.5l-259 97q-93 35 -141 75.5t-64.5 97.5t-16.5 139zM298 789 q0 -61 18 -101.5t100 -69.5l247 -88q29 22 45.5 50t16.5 79q0 62 -18 102t-100 69l-247 88q-29 -22 -45.5 -50t-16.5 -79z" />
<glyph unicode="&#xa8;" horiz-adv-x="770" d="M100 1262v181h206v-181h-206zM464 1262v181h206v-181h-206z" />
<glyph unicode="&#xa9;" horiz-adv-x="1784" d="M156 722q0 156 56.5 290t157 233.5t234 155t288.5 55.5q156 0 290 -55.5t234 -155t156 -233.5t56 -290q0 -157 -56 -291t-156 -234t-234 -155.5t-290 -55.5q-155 0 -288.5 55.5t-234 155.5t-157 234t-56.5 291zM265 722q0 -182 81.5 -327t223.5 -229t324 -84 q183 0 325 84t222.5 229t80.5 327t-80.5 326.5t-222.5 228.5t-325 84q-182 0 -324 -84t-223.5 -228.5t-81.5 -326.5zM551 590v278q0 91 28 162t103.5 111.5t219.5 40.5q139 0 208.5 -42.5t93.5 -115t24 -163.5v-25l-116 -10v64q0 114 -48 157.5t-162 43.5q-113 0 -172 -43.5 t-59 -157.5v-319q0 -114 59 -154.5t173 -40.5q115 0 162 40.5t47 154.5v61h116v-34q0 -88 -24 -158.5t-93.5 -111.5t-207.5 -41q-143 0 -219.5 38.5t-104.5 107t-28 157.5z" />
<glyph unicode="&#xaa;" horiz-adv-x="948" d="M120 751q0 69 25.5 116.5t96.5 86.5t208 81q107 32 151.5 60.5t44.5 103.5q0 56 -28 94.5t-130 38.5q-86 0 -126 -19t-51 -49.5t-11 -67.5v-40h-146v41q0 135 84.5 197t253.5 62q170 0 238 -84.5t68 -225.5v-388q0 -73 17.5 -93.5t72.5 -20.5l-18 -124h-31q-85 0 -123 36 t-58 100q-19 -31 -51.5 -65.5t-85 -58.5t-131.5 -24q-155 0 -212.5 69t-57.5 174zM265 763q0 -69 30.5 -101.5t112.5 -32.5q46 0 96.5 21t90 56t51.5 77v240q-18 -19 -62.5 -50t-125.5 -55q-100 -30 -146.5 -61.5t-46.5 -93.5z" />
<glyph unicode="&#xab;" horiz-adv-x="1054" d="M96 530l273 450l147 -70l-207 -380l207 -380l-140 -70zM510 530l273 450l145 -70l-204 -380l204 -380l-138 -70z" />
<glyph unicode="&#xac;" horiz-adv-x="1024" d="M162 494v148h700v-386h-151v238h-549z" />
<glyph unicode="&#xad;" horiz-adv-x="904" d="M172 499v143h560v-143h-560z" />
<glyph unicode="&#xae;" horiz-adv-x="1784" d="M156 722q0 156 56.5 290t157 233.5t234 155t288.5 55.5q156 0 290 -55.5t234 -155t156 -233.5t56 -290q0 -157 -56 -291t-156 -234t-234 -155.5t-290 -55.5q-155 0 -288.5 55.5t-234 155.5t-157 234t-56.5 291zM265 722q0 -182 81.5 -327t223.5 -229t324 -84 q183 0 325 84t222.5 229t80.5 327t-80.5 326.5t-222.5 228.5t-325 84q-182 0 -324 -84t-223.5 -228.5t-81.5 -326.5zM585 319v834h423q125 0 184 -61t59 -184v-14q0 -108 -41.5 -158.5t-110.5 -69.5l184 -347h-128l-180 333h-259v-333h-131zM716 742h267q72 0 104 39t32 106 v24q0 39 -7 73.5t-34 56t-86 21.5h-276v-320z" />
<glyph unicode="&#xaf;" horiz-adv-x="704" d="M100 1255v155h504v-155h-504z" />
<glyph unicode="&#xb0;" horiz-adv-x="823" d="M82 1159q0 134 84 222.5t246 88.5t245.5 -88.5t83.5 -222.5t-83.5 -222t-245.5 -88t-246 88t-84 222zM232 1160q0 -82 45 -129.5t135 -47.5t134.5 47.5t44.5 129.5q0 83 -44.5 130t-134.5 47t-135 -47t-45 -130z" />
<glyph unicode="&#xb1;" horiz-adv-x="1024" d="M162 101v148h700v-148h-700zM162 594v148h275v226h151v-226h274v-148h-274v-238h-151v238h-275z" />
<glyph unicode="&#xb2;" horiz-adv-x="724" d="M80 1493q0 143 77 204.5t208 61.5q140 0 207 -70.5t67 -174.5q0 -45 -12 -83.5t-43.5 -85.5t-92.5 -118l-203 -236h356v-113h-523l-12 95l272 317q63 73 90.5 116t27.5 104q0 122 -148 122q-77 0 -108.5 -31.5t-31.5 -107.5h-131z" />
<glyph unicode="&#xb3;" horiz-adv-x="711" d="M80 1140h131q8 -86 43 -115.5t102 -29.5q69 0 102 30t33 106q0 60 -13.5 92.5t-53 45.5t-117.5 13v118q104 0 135 32.5t31 87.5q0 52 -29 82t-96 30q-66 0 -98.5 -28t-32.5 -107h-131q0 127 66 194.5t208 67.5q112 0 182.5 -53.5t70.5 -169.5q0 -78 -26 -125.5t-87 -68.5 q62 -23 96.5 -72t34.5 -150q0 -124 -70.5 -188t-198.5 -64q-137 0 -202 59.5t-80 212.5z" />
<glyph unicode="&#xb4;" horiz-adv-x="560" d="M100 1155l135 350h225l-232 -350h-128z" />
<glyph unicode="&#xb5;" horiz-adv-x="1224" d="M174 -383v1443h188v-771q0 -79 58 -123t156 -44q138 0 205 60t67 127v751h188v-1060h-168l-20 133q-40 -71 -116.5 -113t-192.5 -42q-52 0 -96.5 9t-80.5 24v-394h-188z" />
<glyph unicode="&#xb6;" horiz-adv-x="1180" d="M168 1163q0 147 95 215t272 68h433v-1446h-162v1284h-124v-1284h-162v869q-166 0 -259 73.5t-93 220.5z" />
<glyph unicode="&#xb7;" horiz-adv-x="405" d="M100 622v206h205v-206h-205z" />
<glyph unicode="&#xb8;" horiz-adv-x="582" d="M100 -353h188q32 0 44 13.5t12 32.5v68q0 20 -14 33t-42 13h-100v223h101v-120q106 -3 149.5 -45t43.5 -127v-30q0 -71 -46 -122t-159 -51h-177v112z" />
<glyph unicode="&#xb9;" horiz-adv-x="708" d="M80 1716l267 30h99v-755h212v-113h-573v113h220v632l-211 -22z" />
<glyph unicode="&#xba;" horiz-adv-x="951" d="M120 798v367q0 127 81 209t274 82q192 0 274 -82t82 -209v-367q0 -127 -82 -208.5t-274 -81.5q-193 0 -274 81.5t-81 208.5zM272 784q0 -85 56 -118.5t147 -33.5q90 0 147 33.5t57 118.5v395q0 85 -57 119t-147 34q-91 0 -147 -34t-56 -119v-395z" />
<glyph unicode="&#xbb;" horiz-adv-x="1054" d="M126 150l204 380l-204 380l138 70l280 -450l-273 -450zM538 150l207 380l-207 380l140 70l280 -450l-273 -450z" />
<glyph unicode="&#xbc;" horiz-adv-x="1732" d="M80 1416l267 30h99v-755h212v-113h-573v113h220v632l-211 -22zM508 0l684 1446h126l-678 -1446h-132zM1068 211v94l307 563h149l-298 -544h206v179h140v-179h110v-113h-110v-211h-140v211h-364z" />
<glyph unicode="&#xbd;" horiz-adv-x="1762" d="M80 1416l267 30h99v-755h212v-113h-573v113h220v632l-211 -22zM508 0l684 1446h126l-678 -1446h-132zM1118 615q0 143 77 204.5t208 61.5q140 0 207 -70.5t67 -174.5q0 -45 -12 -83.5t-43.5 -85.5t-92.5 -118l-203 -236h356v-113h-523l-12 95l272 317q63 73 90.5 116 t27.5 104q0 122 -148 122q-77 0 -108.5 -31.5t-31.5 -107.5h-131z" />
<glyph unicode="&#xbe;" horiz-adv-x="1735" d="M80 840h131q8 -86 43 -115.5t102 -29.5q69 0 102 30t33 106q0 60 -13.5 92.5t-53 45.5t-117.5 13v118q104 0 135 32.5t31 87.5q0 52 -29 82t-96 30q-66 0 -98.5 -28t-32.5 -107h-131q0 127 66 194.5t208 67.5q112 0 182.5 -53.5t70.5 -169.5q0 -78 -26 -125.5t-87 -68.5 q62 -23 96.5 -72t34.5 -150q0 -124 -70.5 -188t-198.5 -64q-137 0 -202 59.5t-80 212.5zM511 0l684 1446h126l-678 -1446h-132zM1071 211v94l307 563h149l-298 -544h206v179h140v-179h110v-113h-110v-211h-140v211h-364z" />
<glyph unicode="&#xbf;" horiz-adv-x="1240" d="M147 -54q0 91 33 165.5t92 145.5t137 153l208 219h160l-274 -364q-65 -86 -104 -153t-39 -155q0 -89 46 -146t180 -57q162 0 221.5 57t59.5 157v53h197v-32q0 -152 -48.5 -238.5t-154 -122.5t-275.5 -36q-131 0 -216 32t-134 84t-69 114.5t-20 123.5zM584 824v236h234 v-236h-234z" />
<glyph unicode="&#xc0;" horiz-adv-x="1428" d="M86 0l539 1446h177l540 -1446h-205l-97 282h-647l-98 -282h-209zM445 430h544l-270 785zM454 1982h225l165 -350h-128z" />
<glyph unicode="&#xc1;" horiz-adv-x="1428" d="M86 0l539 1446h177l540 -1446h-205l-97 282h-647l-98 -282h-209zM445 430h544l-270 785zM584 1632l165 350h225l-262 -350h-128z" />
<glyph unicode="&#xc2;" horiz-adv-x="1428" d="M86 0l539 1446h177l540 -1446h-205l-97 282h-647l-98 -282h-209zM372 1635l255 320h175l255 -320h-138l-204 183l-205 -183h-138zM445 430h544l-270 785z" />
<glyph unicode="&#xc3;" horiz-adv-x="1428" d="M86 0l539 1446h177l540 -1446h-205l-97 282h-647l-98 -282h-209zM417 1616q0 124 48 176.5t138 52.5q69 0 108.5 -26.5t68 -53.5t63.5 -27q31 0 50.5 23.5t19.5 69.5h97q0 -124 -48 -176.5t-138 -52.5q-68 0 -107.5 27t-68 53.5t-64.5 26.5q-31 0 -50.5 -23t-19.5 -70 h-97zM445 430h544l-270 785z" />
<glyph unicode="&#xc4;" horiz-adv-x="1428" d="M86 0l539 1446h177l540 -1446h-205l-97 282h-647l-98 -282h-209zM429 1649v181h206v-181h-206zM445 430h544l-270 785zM793 1649v181h206v-181h-206z" />
<glyph unicode="&#xc5;" horiz-adv-x="1428" d="M86 0l539 1446h177l540 -1446h-205l-97 282h-647l-98 -282h-209zM445 430h544l-270 785zM480 1768q0 108 64 166t170 58t170 -58t64 -166q0 -109 -63.5 -167.5t-170.5 -58.5q-106 0 -170 58.5t-64 167.5zM599 1769q0 -73 35.5 -98.5t79.5 -25.5q42 0 78.5 25t36.5 97 q0 71 -36.5 97.5t-79.5 26.5t-78.5 -25.5t-35.5 -96.5z" />
<glyph unicode="&#xc6;" horiz-adv-x="1686" d="M98 3l394 1443h1058v-150h-485v-482h424v-150h-424v-514h494v-150h-685v502h-444l-128 -502zM468 650h406v646h-242z" />
<glyph unicode="&#xc7;" horiz-adv-x="1456" d="M182 486v454q0 115 22.5 211.5t84 167.5t175 110t295.5 39q219 0 336 -52.5t161 -154.5t44 -251v-13l-191 -17v27q0 131 -33.5 195t-110.5 84t-206 20q-127 0 -210 -28.5t-124 -100t-41 -200.5v-522q0 -128 42 -196t126.5 -93.5t212.5 -25.5q126 0 201.5 17t109 77.5 t33.5 189.5v24h191v-10q0 -109 -20.5 -194.5t-76.5 -144.5t-162.5 -90t-279.5 -31q-181 0 -295 37t-175.5 104.5t-85 160.5t-23.5 206zM623 -353h188q32 0 44 13.5t12 32.5v68q0 20 -14 33t-42 13h-100v223h101v-120q106 -3 149.5 -45t43.5 -127v-30q0 -71 -46 -122 t-159 -51h-177v112z" />
<glyph unicode="&#xc8;" horiz-adv-x="1255" d="M218 0v1446h903v-150h-702v-476h620v-150h-620v-520h714v-150h-915zM410 1982h225l165 -350h-128z" />
<glyph unicode="&#xc9;" horiz-adv-x="1255" d="M218 0v1446h903v-150h-702v-476h620v-150h-620v-520h714v-150h-915zM540 1632l165 350h225l-262 -350h-128z" />
<glyph unicode="&#xca;" horiz-adv-x="1255" d="M218 0v1446h903v-150h-702v-476h620v-150h-620v-520h714v-150h-915zM328 1635l255 320h175l255 -320h-138l-204 183l-205 -183h-138z" />
<glyph unicode="&#xcb;" horiz-adv-x="1255" d="M218 0v1446h903v-150h-702v-476h620v-150h-620v-520h714v-150h-915zM385 1649v181h206v-181h-206zM749 1649v181h206v-181h-206z" />
<glyph unicode="&#xcc;" horiz-adv-x="1132" d="M190 0v150h276v1147h-276v149h752v-149h-275v-1147h275v-150h-752zM306 1982h225l165 -350h-128z" />
<glyph unicode="&#xcd;" horiz-adv-x="1132" d="M190 0v150h276v1147h-276v149h752v-149h-275v-1147h275v-150h-752zM436 1632l165 350h225l-262 -350h-128z" />
<glyph unicode="&#xce;" horiz-adv-x="1132" d="M190 0v150h276v1147h-276v149h752v-149h-275v-1147h275v-150h-752zM224 1635l255 320h175l255 -320h-138l-204 183l-205 -183h-138z" />
<glyph unicode="&#xcf;" horiz-adv-x="1132" d="M190 0v150h276v1147h-276v149h752v-149h-275v-1147h275v-150h-752zM281 1649v181h206v-181h-206zM645 1649v181h206v-181h-206z" />
<glyph unicode="&#xd0;" horiz-adv-x="1522" d="M21 694v143h197v609h574q201 0 321 -64.5t173.5 -174.5t53.5 -248v-477q0 -235 -135.5 -358.5t-410.5 -123.5h-576v694h-197zM420 150h354q104 0 186.5 22.5t130.5 89.5t48 200v509q0 134 -48.5 203.5t-131 95t-185.5 25.5h-354v-458h261v-143h-261v-544z" />
<glyph unicode="&#xd1;" horiz-adv-x="1594" d="M218 0v1446h153l828 -1157v1157h177v-1446h-179l-802 1104v-1104h-177zM500 1616q0 124 48 176.5t138 52.5q69 0 108.5 -26.5t68 -53.5t63.5 -27q31 0 50.5 23.5t19.5 69.5h97q0 -124 -48 -176.5t-138 -52.5q-68 0 -107.5 27t-68 53.5t-64.5 26.5q-31 0 -50.5 -23 t-19.5 -70h-97z" />
<glyph unicode="&#xd2;" horiz-adv-x="1546" d="M186 486v455q0 115 25.5 211t90.5 167t181.5 110t298.5 39q175 0 288 -41t176 -114.5t88.5 -171.5t25.5 -213v-428q0 -111 -25.5 -206.5t-89 -166t-176.5 -110t-287 -39.5q-181 0 -297.5 37t-181.5 104.5t-91 160.5t-26 206zM388 455q0 -128 45 -196t133 -93.5t216 -25.5 q129 0 212.5 25.5t124 93.5t40.5 196v523q0 129 -41 200t-124.5 99.5t-211.5 28.5q-127 0 -215 -28.5t-133.5 -99.5t-45.5 -200v-523zM513 1982h225l165 -350h-128z" />
<glyph unicode="&#xd3;" horiz-adv-x="1546" d="M186 486v455q0 115 25.5 211t90.5 167t181.5 110t298.5 39q175 0 288 -41t176 -114.5t88.5 -171.5t25.5 -213v-428q0 -111 -25.5 -206.5t-89 -166t-176.5 -110t-287 -39.5q-181 0 -297.5 37t-181.5 104.5t-91 160.5t-26 206zM388 455q0 -128 45 -196t133 -93.5t216 -25.5 q129 0 212.5 25.5t124 93.5t40.5 196v523q0 129 -41 200t-124.5 99.5t-211.5 28.5q-127 0 -215 -28.5t-133.5 -99.5t-45.5 -200v-523zM643 1632l165 350h225l-262 -350h-128z" />
<glyph unicode="&#xd4;" horiz-adv-x="1546" d="M186 486v455q0 115 25.5 211t90.5 167t181.5 110t298.5 39q175 0 288 -41t176 -114.5t88.5 -171.5t25.5 -213v-428q0 -111 -25.5 -206.5t-89 -166t-176.5 -110t-287 -39.5q-181 0 -297.5 37t-181.5 104.5t-91 160.5t-26 206zM388 455q0 -128 45 -196t133 -93.5t216 -25.5 q129 0 212.5 25.5t124 93.5t40.5 196v523q0 129 -41 200t-124.5 99.5t-211.5 28.5q-127 0 -215 -28.5t-133.5 -99.5t-45.5 -200v-523zM431 1635l255 320h175l255 -320h-138l-204 183l-205 -183h-138z" />
<glyph unicode="&#xd5;" horiz-adv-x="1546" d="M186 486v455q0 115 25.5 211t90.5 167t181.5 110t298.5 39q175 0 288 -41t176 -114.5t88.5 -171.5t25.5 -213v-428q0 -111 -25.5 -206.5t-89 -166t-176.5 -110t-287 -39.5q-181 0 -297.5 37t-181.5 104.5t-91 160.5t-26 206zM388 455q0 -128 45 -196t133 -93.5t216 -25.5 q129 0 212.5 25.5t124 93.5t40.5 196v523q0 129 -41 200t-124.5 99.5t-211.5 28.5q-127 0 -215 -28.5t-133.5 -99.5t-45.5 -200v-523zM476 1616q0 124 48 176.5t138 52.5q69 0 108.5 -26.5t68 -53.5t63.5 -27q31 0 50.5 23.5t19.5 69.5h97q0 -124 -48 -176.5t-138 -52.5 q-68 0 -107.5 27t-68 53.5t-64.5 26.5q-31 0 -50.5 -23t-19.5 -70h-97z" />
<glyph unicode="&#xd6;" horiz-adv-x="1546" d="M186 486v455q0 115 25.5 211t90.5 167t181.5 110t298.5 39q175 0 288 -41t176 -114.5t88.5 -171.5t25.5 -213v-428q0 -111 -25.5 -206.5t-89 -166t-176.5 -110t-287 -39.5q-181 0 -297.5 37t-181.5 104.5t-91 160.5t-26 206zM388 455q0 -128 45 -196t133 -93.5t216 -25.5 q129 0 212.5 25.5t124 93.5t40.5 196v523q0 129 -41 200t-124.5 99.5t-211.5 28.5q-127 0 -215 -28.5t-133.5 -99.5t-45.5 -200v-523zM488 1649v181h206v-181h-206zM852 1649v181h206v-181h-206z" />
<glyph unicode="&#xd7;" horiz-adv-x="973" d="M129 344l237 232l-237 230l110 131l248 -243l248 243l109 -131l-236 -230l236 -232l-109 -128l-248 242l-248 -242z" />
<glyph unicode="&#xd8;" horiz-adv-x="1546" d="M186 486v455q0 115 25.5 211t90.5 167t181.5 110t298.5 39q105 0 189 -16l83 224l104 -38l-80 -215q111 -41 172 -114t85.5 -170.5t24.5 -210.5v-428q0 -111 -25.5 -206.5t-89 -166t-176.5 -110t-287 -39.5q-131 0 -231 20l-72 -193l-103 38l69 186q-152 59 -205.5 178.5 t-53.5 278.5zM388 455q0 -103 29.5 -166.5t87.5 -97.5l409 1106q-56 9 -132 9q-127 0 -215 -28.5t-133.5 -99.5t-45.5 -200v-523zM608 154q38 -8 81.5 -11t92.5 -3q129 0 212.5 25.5t124 93.5t40.5 196v523q0 118 -34 187t-104 102z" />
<glyph unicode="&#xd9;" horiz-adv-x="1538" d="M200 473v973h202v-994q0 -133 52.5 -200t138.5 -89.5t186 -22.5q102 0 182.5 22.5t127.5 89.5t47 200v994h202v-973q0 -100 -24.5 -189.5t-85.5 -158.5t-170 -108t-279 -39q-177 0 -290.5 39t-176.5 107t-87.5 157.5t-24.5 191.5zM509 1982h225l165 -350h-128z" />
<glyph unicode="&#xda;" horiz-adv-x="1538" d="M200 473v973h202v-994q0 -133 52.5 -200t138.5 -89.5t186 -22.5q102 0 182.5 22.5t127.5 89.5t47 200v994h202v-973q0 -100 -24.5 -189.5t-85.5 -158.5t-170 -108t-279 -39q-177 0 -290.5 39t-176.5 107t-87.5 157.5t-24.5 191.5zM639 1632l165 350h225l-262 -350h-128z " />
<glyph unicode="&#xdb;" horiz-adv-x="1538" d="M200 473v973h202v-994q0 -133 52.5 -200t138.5 -89.5t186 -22.5q102 0 182.5 22.5t127.5 89.5t47 200v994h202v-973q0 -100 -24.5 -189.5t-85.5 -158.5t-170 -108t-279 -39q-177 0 -290.5 39t-176.5 107t-87.5 157.5t-24.5 191.5zM427 1635l255 320h175l255 -320h-138 l-204 183l-205 -183h-138z" />
<glyph unicode="&#xdc;" horiz-adv-x="1538" d="M200 473v973h202v-994q0 -133 52.5 -200t138.5 -89.5t186 -22.5q102 0 182.5 22.5t127.5 89.5t47 200v994h202v-973q0 -100 -24.5 -189.5t-85.5 -158.5t-170 -108t-279 -39q-177 0 -290.5 39t-176.5 107t-87.5 157.5t-24.5 191.5zM484 1649v181h206v-181h-206zM848 1649 v181h206v-181h-206z" />
<glyph unicode="&#xdd;" horiz-adv-x="1318" d="M48 1446h213l400 -702l402 702h207l-509 -878v-568h-201v568zM529 1632l165 350h225l-262 -350h-128z" />
<glyph unicode="&#xde;" horiz-adv-x="1320" d="M212 0v1446h202v-238h374q122 0 212.5 -40t141 -135t50.5 -260q0 -173 -50 -269t-141 -134.5t-214 -38.5h-373v-331h-202zM414 484h377q88 0 130 37.5t55.5 100.5t13.5 137q0 71 -11.5 139t-52.5 112.5t-132 44.5h-380v-571z" />
<glyph unicode="&#xdf;" horiz-adv-x="1281" d="M190 0v1103q0 149 62 231.5t167 115.5t233 33q211 0 308 -94.5t97 -253.5q0 -118 -38 -177t-121 -81q64 -14 125.5 -56t102 -122t40.5 -211q0 -184 -73 -291t-213.5 -152t-343.5 -45l-19 149q99 6 185.5 17.5t151 43t101 96.5t36.5 179q0 129 -48 189.5t-136 78 t-207 17.5v142q109 0 167 24.5t80 71t22 111.5q0 89 -27.5 134.5t-78.5 62t-120 16.5q-73 0 -133 -14t-96 -57t-36 -130v-1131h-188z" />
<glyph unicode="&#xe0;" horiz-adv-x="1172" d="M132 268q0 80 31.5 134.5t119 99t256.5 93.5q88 26 141 46t77 51t24 89q0 43 -13.5 78t-55 56t-126.5 21q-106 0 -155 -22t-62.5 -57.5t-13.5 -78.5v-47h-181v48q0 157 105 229t313 72q210 0 293.5 -98t83.5 -262v-452q0 -84 21.5 -108t89.5 -24l-22 -144h-38 q-106 0 -153 41.5t-71 116.5q-23 -36 -63.5 -76t-105 -68t-162.5 -28q-117 0 -190.5 40.5t-108 107t-34.5 142.5zM311 274q0 -80 41.5 -118t135.5 -38q57 0 119 24.5t110.5 65t63.5 89.5v279q-22 -22 -76.5 -57.5t-155.5 -64.5q-123 -35 -180.5 -72t-57.5 -108zM337 1585 h225l135 -350h-128z" />
<glyph unicode="&#xe1;" horiz-adv-x="1172" d="M132 268q0 80 31.5 134.5t119 99t256.5 93.5q88 26 141 46t77 51t24 89q0 43 -13.5 78t-55 56t-126.5 21q-106 0 -155 -22t-62.5 -57.5t-13.5 -78.5v-47h-181v48q0 157 105 229t313 72q210 0 293.5 -98t83.5 -262v-452q0 -84 21.5 -108t89.5 -24l-22 -144h-38 q-106 0 -153 41.5t-71 116.5q-23 -36 -63.5 -76t-105 -68t-162.5 -28q-117 0 -190.5 40.5t-108 107t-34.5 142.5zM311 274q0 -80 41.5 -118t135.5 -38q57 0 119 24.5t110.5 65t63.5 89.5v279q-22 -22 -76.5 -57.5t-155.5 -64.5q-123 -35 -180.5 -72t-57.5 -108zM457 1235 l135 350h225l-232 -350h-128z" />
<glyph unicode="&#xe2;" horiz-adv-x="1172" d="M132 268q0 80 31.5 134.5t119 99t256.5 93.5q88 26 141 46t77 51t24 89q0 43 -13.5 78t-55 56t-126.5 21q-106 0 -155 -22t-62.5 -57.5t-13.5 -78.5v-47h-181v48q0 157 105 229t313 72q210 0 293.5 -98t83.5 -262v-452q0 -84 21.5 -108t89.5 -24l-22 -144h-38 q-106 0 -153 41.5t-71 116.5q-23 -36 -63.5 -76t-105 -68t-162.5 -28q-117 0 -190.5 40.5t-108 107t-34.5 142.5zM235 1235l255 340h175l255 -340h-138l-204 199l-205 -199h-138zM311 274q0 -80 41.5 -118t135.5 -38q57 0 119 24.5t110.5 65t63.5 89.5v279 q-22 -22 -76.5 -57.5t-155.5 -64.5q-123 -35 -180.5 -72t-57.5 -108z" />
<glyph unicode="&#xe3;" horiz-adv-x="1172" d="M132 268q0 80 31.5 134.5t119 99t256.5 93.5q88 26 141 46t77 51t24 89q0 43 -13.5 78t-55 56t-126.5 21q-106 0 -155 -22t-62.5 -57.5t-13.5 -78.5v-47h-181v48q0 157 105 229t313 72q210 0 293.5 -98t83.5 -262v-452q0 -84 21.5 -108t89.5 -24l-22 -144h-38 q-106 0 -153 41.5t-71 116.5q-23 -36 -63.5 -76t-105 -68t-162.5 -28q-117 0 -190.5 40.5t-108 107t-34.5 142.5zM280 1267q0 124 48 176.5t138 52.5q69 0 108.5 -26.5t68 -53.5t63.5 -27q31 0 50.5 23.5t19.5 69.5h97q0 -124 -48 -176.5t-138 -52.5q-68 0 -107.5 27 t-68 53.5t-64.5 26.5q-31 0 -50.5 -23t-19.5 -70h-97zM311 274q0 -80 41.5 -118t135.5 -38q57 0 119 24.5t110.5 65t63.5 89.5v279q-22 -22 -76.5 -57.5t-155.5 -64.5q-123 -35 -180.5 -72t-57.5 -108z" />
<glyph unicode="&#xe4;" horiz-adv-x="1172" d="M132 268q0 80 31.5 134.5t119 99t256.5 93.5q88 26 141 46t77 51t24 89q0 43 -13.5 78t-55 56t-126.5 21q-106 0 -155 -22t-62.5 -57.5t-13.5 -78.5v-47h-181v48q0 157 105 229t313 72q210 0 293.5 -98t83.5 -262v-452q0 -84 21.5 -108t89.5 -24l-22 -144h-38 q-106 0 -153 41.5t-71 116.5q-23 -36 -63.5 -76t-105 -68t-162.5 -28q-117 0 -190.5 40.5t-108 107t-34.5 142.5zM292 1262v181h206v-181h-206zM311 274q0 -80 41.5 -118t135.5 -38q57 0 119 24.5t110.5 65t63.5 89.5v279q-22 -22 -76.5 -57.5t-155.5 -64.5 q-123 -35 -180.5 -72t-57.5 -108zM656 1262v181h206v-181h-206z" />
<glyph unicode="&#xe5;" horiz-adv-x="1172" d="M132 268q0 80 31.5 134.5t119 99t256.5 93.5q88 26 141 46t77 51t24 89q0 43 -13.5 78t-55 56t-126.5 21q-106 0 -155 -22t-62.5 -57.5t-13.5 -78.5v-47h-181v48q0 157 105 229t313 72q210 0 293.5 -98t83.5 -262v-452q0 -84 21.5 -108t89.5 -24l-22 -144h-38 q-106 0 -153 41.5t-71 116.5q-23 -36 -63.5 -76t-105 -68t-162.5 -28q-117 0 -190.5 40.5t-108 107t-34.5 142.5zM311 274q0 -80 41.5 -118t135.5 -38q57 0 119 24.5t110.5 65t63.5 89.5v279q-22 -22 -76.5 -57.5t-155.5 -64.5q-123 -35 -180.5 -72t-57.5 -108zM343 1398 q0 108 64 166t170 58t170 -58t64 -166q0 -109 -63.5 -167.5t-170.5 -58.5q-106 0 -170 58.5t-64 167.5zM462 1399q0 -73 35.5 -98.5t79.5 -25.5q42 0 78.5 25t36.5 97q0 71 -36.5 97.5t-79.5 26.5t-78.5 -25.5t-35.5 -96.5z" />
<glyph unicode="&#xe6;" horiz-adv-x="1741" d="M131 283q0 53 12 101.5t51.5 91.5t121.5 77t223 57q113 18 164.5 32t66 40t14.5 79q0 74 -38 126.5t-157 52.5q-106 0 -156.5 -29t-65 -74t-14.5 -95v-24h-181v28q0 161 105 247.5t313 86.5q104 0 186.5 -34.5t110.5 -106.5q47 74 124 107.5t186 33.5q207 0 309.5 -85.5 t102.5 -236.5v-247h-636v-183q0 -207 216 -207q83 0 134.5 11t77.5 53t32 133h170q-10 -129 -52.5 -203t-129.5 -105t-232 -31q-138 0 -208.5 49.5t-102.5 130.5q-64 -76 -156.5 -127.5t-252.5 -51.5q-112 0 -187.5 42t-113 111t-37.5 150zM312 284q0 -89 54 -130t136 -41 q58 0 117.5 20t105 56.5t60.5 85.5v285q0 -10 -19.5 -21t-74 -25t-159.5 -35q-126 -25 -173 -74.5t-47 -120.5zM973 633h464v145q0 96 -66 128t-175 32q-112 0 -167.5 -40t-55.5 -138v-127z" />
<glyph unicode="&#xe7;" horiz-adv-x="1106" d="M148 344v404q0 150 114.5 241t311.5 91q127 0 221 -29.5t145.5 -106.5t51.5 -220l-179 -17q0 97 -22 146t-73 66t-139 17q-121 0 -182 -43.5t-61 -149.5v-415q0 -114 64.5 -160t178.5 -46q93 0 141.5 13.5t68.5 54t27 120.5h174q-10 -122 -52 -195t-128.5 -105 t-230.5 -32q-158 0 -252.5 50.5t-136.5 134t-42 181.5zM431 -353h188q32 0 44 13.5t12 32.5v68q0 20 -14 33t-42 13h-100v223h101v-120q106 -3 149.5 -45t43.5 -127v-30q0 -71 -46 -122t-159 -51h-177v112z" />
<glyph unicode="&#xe8;" horiz-adv-x="1138" d="M148 374v369q0 150 103 243.5t331 93.5q218 0 321 -85.5t103 -236.5v-252h-670v-149q0 -129 51.5 -182t201.5 -53q89 0 140.5 6.5t76 40t32.5 113.5h166q-13 -125 -54.5 -190.5t-127.5 -89.5t-233 -24q-237 0 -339 99t-102 297zM336 633h488v145q0 96 -66.5 127 t-175.5 31q-112 0 -179 -39t-67 -137v-127zM344 1585h225l135 -350h-128z" />
<glyph unicode="&#xe9;" horiz-adv-x="1138" d="M148 374v369q0 150 103 243.5t331 93.5q218 0 321 -85.5t103 -236.5v-252h-670v-149q0 -129 51.5 -182t201.5 -53q89 0 140.5 6.5t76 40t32.5 113.5h166q-13 -125 -54.5 -190.5t-127.5 -89.5t-233 -24q-237 0 -339 99t-102 297zM336 633h488v145q0 96 -66.5 127 t-175.5 31q-112 0 -179 -39t-67 -137v-127zM464 1235l135 350h225l-232 -350h-128z" />
<glyph unicode="&#xea;" horiz-adv-x="1138" d="M148 374v369q0 150 103 243.5t331 93.5q218 0 321 -85.5t103 -236.5v-252h-670v-149q0 -129 51.5 -182t201.5 -53q89 0 140.5 6.5t76 40t32.5 113.5h166q-13 -125 -54.5 -190.5t-127.5 -89.5t-233 -24q-237 0 -339 99t-102 297zM242 1235l255 340h175l255 -340h-138 l-204 199l-205 -199h-138zM336 633h488v145q0 96 -66.5 127t-175.5 31q-112 0 -179 -39t-67 -137v-127z" />
<glyph unicode="&#xeb;" horiz-adv-x="1138" d="M148 374v369q0 150 103 243.5t331 93.5q218 0 321 -85.5t103 -236.5v-252h-670v-149q0 -129 51.5 -182t201.5 -53q89 0 140.5 6.5t76 40t32.5 113.5h166q-13 -125 -54.5 -190.5t-127.5 -89.5t-233 -24q-237 0 -339 99t-102 297zM299 1262v181h206v-181h-206zM336 633h488 v145q0 96 -66.5 127t-175.5 31q-112 0 -179 -39t-67 -137v-127zM663 1262v181h206v-181h-206z" />
<glyph unicode="&#xec;" horiz-adv-x="560" d="M40 1585h225l135 -350h-128zM186 0v1060h188v-1060h-188z" />
<glyph unicode="&#xed;" horiz-adv-x="560" d="M160 1235l135 350h225l-232 -350h-128zM186 0v1060h188v-1060h-188z" />
<glyph unicode="&#xee;" horiz-adv-x="564" d="M-12 1235l215 340h175l215 -340h-138l-164 190l-165 -190h-138zM186 0v1060h188v-1060h-188z" />
<glyph unicode="&#xef;" horiz-adv-x="560" d="M-5 1262v181h206v-181h-206zM186 0v1060h188v-1060h-188zM359 1262v181h206v-181h-206z" />
<glyph unicode="&#xf0;" horiz-adv-x="1158" d="M150 314v332q0 150 115 239.5t312 89.5q87 0 156 -23.5t89 -40.5q0 151 -59 247.5t-151 145.5l-141 -204l-95 52l130 189q-72 23 -139.5 33t-156.5 10l29 128q95 0 176 -10t180 -36l102 151l95 -52l-99 -138q173 -86 245 -267.5t72 -423.5v-371q0 -73 -13 -142 t-55 -123.5t-126.5 -87t-228.5 -32.5q-237 0 -337 93.5t-100 240.5zM337 308q0 -106 70 -146.5t180 -40.5q128 0 183 50t55 188v424q-23 15 -68.5 26.5t-92.5 17.5t-77 6q-109 0 -179.5 -41.5t-70.5 -139.5v-344z" />
<glyph unicode="&#xf1;" horiz-adv-x="1226" d="M186 0v1060h188v-103q47 54 123 88.5t191 34.5q131 0 210.5 -42.5t115.5 -113t36 -154.5v-770h-188v781q0 79 -62 117t-160 38q-138 0 -202 -52t-64 -129v-755h-188zM349 1267q0 124 48 176.5t138 52.5q69 0 108.5 -26.5t68 -53.5t63.5 -27q31 0 50.5 23.5t19.5 69.5h97 q0 -124 -48 -176.5t-138 -52.5q-68 0 -107.5 27t-68 53.5t-64.5 26.5q-31 0 -50.5 -23t-19.5 -70h-97z" />
<glyph unicode="&#xf2;" horiz-adv-x="1174" d="M148 315v427q0 98 43.5 174.5t140 120t255.5 43.5q158 0 254.5 -43.5t140.5 -120t44 -174.5v-427q0 -98 -44 -174t-140.5 -119.5t-254.5 -43.5q-159 0 -255.5 43.5t-140 119.5t-43.5 174zM336 299q0 -98 69.5 -137.5t181.5 -39.5q110 0 180.5 39.5t70.5 137.5v459 q0 98 -70.5 138t-180.5 40q-112 0 -181.5 -40t-69.5 -138v-459zM345 1585h225l135 -350h-128z" />
<glyph unicode="&#xf3;" horiz-adv-x="1174" d="M148 315v427q0 98 43.5 174.5t140 120t255.5 43.5q158 0 254.5 -43.5t140.5 -120t44 -174.5v-427q0 -98 -44 -174t-140.5 -119.5t-254.5 -43.5q-159 0 -255.5 43.5t-140 119.5t-43.5 174zM336 299q0 -98 69.5 -137.5t181.5 -39.5q110 0 180.5 39.5t70.5 137.5v459 q0 98 -70.5 138t-180.5 40q-112 0 -181.5 -40t-69.5 -138v-459zM465 1235l135 350h225l-232 -350h-128z" />
<glyph unicode="&#xf4;" horiz-adv-x="1174" d="M148 315v427q0 98 43.5 174.5t140 120t255.5 43.5q158 0 254.5 -43.5t140.5 -120t44 -174.5v-427q0 -98 -44 -174t-140.5 -119.5t-254.5 -43.5q-159 0 -255.5 43.5t-140 119.5t-43.5 174zM243 1235l255 340h175l255 -340h-138l-204 199l-205 -199h-138zM336 299 q0 -98 69.5 -137.5t181.5 -39.5q110 0 180.5 39.5t70.5 137.5v459q0 98 -70.5 138t-180.5 40q-112 0 -181.5 -40t-69.5 -138v-459z" />
<glyph unicode="&#xf5;" horiz-adv-x="1174" d="M148 315v427q0 98 43.5 174.5t140 120t255.5 43.5q158 0 254.5 -43.5t140.5 -120t44 -174.5v-427q0 -98 -44 -174t-140.5 -119.5t-254.5 -43.5q-159 0 -255.5 43.5t-140 119.5t-43.5 174zM288 1267q0 124 48 176.5t138 52.5q69 0 108.5 -26.5t68 -53.5t63.5 -27 q31 0 50.5 23.5t19.5 69.5h97q0 -124 -48 -176.5t-138 -52.5q-68 0 -107.5 27t-68 53.5t-64.5 26.5q-31 0 -50.5 -23t-19.5 -70h-97zM336 299q0 -98 69.5 -137.5t181.5 -39.5q110 0 180.5 39.5t70.5 137.5v459q0 98 -70.5 138t-180.5 40q-112 0 -181.5 -40t-69.5 -138v-459z " />
<glyph unicode="&#xf6;" horiz-adv-x="1174" d="M148 315v427q0 98 43.5 174.5t140 120t255.5 43.5q158 0 254.5 -43.5t140.5 -120t44 -174.5v-427q0 -98 -44 -174t-140.5 -119.5t-254.5 -43.5q-159 0 -255.5 43.5t-140 119.5t-43.5 174zM300 1262v181h206v-181h-206zM336 299q0 -98 69.5 -137.5t181.5 -39.5 q110 0 180.5 39.5t70.5 137.5v459q0 98 -70.5 138t-180.5 40q-112 0 -181.5 -40t-69.5 -138v-459zM664 1262v181h206v-181h-206z" />
<glyph unicode="&#xf7;" horiz-adv-x="1024" d="M162 494v148h700v-148h-700zM410 115v209h205v-209h-205zM410 812v209h205v-209h-205z" />
<glyph unicode="&#xf8;" horiz-adv-x="1174" d="M148 315v427q0 98 43.5 174.5t139.5 120t256 43.5q85 0 155 -14l69 185l90 -31l-67 -181q101 -42 146.5 -119.5t45.5 -177.5v-427q0 -98 -44 -174t-140.5 -119.5t-254.5 -43.5q-79 0 -144 11l-80 -215l-92 31l78 210q-107 40 -154 119t-47 181zM336 299q0 -93 68 -137 l286 764q-45 10 -103 10q-112 0 -181.5 -40t-69.5 -138v-459zM495 129q41 -7 92 -7q110 0 180.5 39.5t70.5 137.5v459q0 86 -60 131z" />
<glyph unicode="&#xf9;" horiz-adv-x="1224" d="M176 290v770h188v-771q0 -79 58 -123t156 -44q138 0 205 60t67 127v751h188v-1060h-168l-20 133q-40 -71 -116.5 -113t-192.5 -42q-130 0 -210.5 43t-117.5 114t-37 155zM364 1585h225l135 -350h-128z" />
<glyph unicode="&#xfa;" horiz-adv-x="1224" d="M176 290v770h188v-771q0 -79 58 -123t156 -44q138 0 205 60t67 127v751h188v-1060h-168l-20 133q-40 -71 -116.5 -113t-192.5 -42q-130 0 -210.5 43t-117.5 114t-37 155zM484 1235l135 350h225l-232 -350h-128z" />
<glyph unicode="&#xfb;" horiz-adv-x="1224" d="M176 290v770h188v-771q0 -79 58 -123t156 -44q138 0 205 60t67 127v751h188v-1060h-168l-20 133q-40 -71 -116.5 -113t-192.5 -42q-130 0 -210.5 43t-117.5 114t-37 155zM262 1235l255 340h175l255 -340h-138l-204 199l-205 -199h-138z" />
<glyph unicode="&#xfc;" horiz-adv-x="1224" d="M176 290v770h188v-771q0 -79 58 -123t156 -44q138 0 205 60t67 127v751h188v-1060h-168l-20 133q-40 -71 -116.5 -113t-192.5 -42q-130 0 -210.5 43t-117.5 114t-37 155zM319 1262v181h206v-181h-206zM683 1262v181h206v-181h-206z" />
<glyph unicode="&#xfd;" horiz-adv-x="1118" d="M76 1060h194l329 -846l273 846h188l-404 -1158q-54 -155 -157 -231.5t-301 -76.5v147q111 0 181 45t118 160l19 45zM444 1235l135 350h225l-232 -350h-128z" />
<glyph unicode="&#xfe;" horiz-adv-x="1195" d="M180 -408v1914h188v-512q45 34 118.5 58t155.5 24q203 0 304 -97t101 -250v-385q0 -160 -111 -264t-318 -104q-89 0 -150.5 19.5t-99.5 38.5v-442h-188zM368 179q36 -20 96 -41t142 -21q111 0 182 55t71 152v418q0 95 -71 143.5t-175 48.5q-66 0 -118.5 -22t-85 -48.5 t-41.5 -39.5v-645z" />
<glyph unicode="&#xff;" horiz-adv-x="1118" d="M76 1060h194l329 -846l273 846h188l-404 -1158q-54 -155 -157 -231.5t-301 -76.5v147q111 0 181 45t118 160l19 45zM279 1262v181h206v-181h-206zM643 1262v181h206v-181h-206z" />
<glyph unicode="&#x152;" horiz-adv-x="1567" d="M183 510v408q0 115 25 211.5t89 167.5t180 110t298 39h625v-150h-414v-482h353v-150h-353v-514h423v-150h-634q-181 0 -297 37t-180 105t-89.5 161.5t-25.5 206.5zM385 479q0 -190 96.5 -259.5t283.5 -69.5h20v1145h-21q-185 0 -282 -75t-97 -265v-476z" />
<glyph unicode="&#x153;" horiz-adv-x="1734" d="M150 317v430q0 150 111 241.5t308 91.5q104 0 183 -30t131 -100q50 70 128 100t187 30q207 0 306.5 -85.5t99.5 -236.5v-252h-625v-178q0 -207 219 -207q83 0 132 14.5t73 59.5t30 136h170q-10 -129 -50 -206t-125 -111t-230 -34q-108 0 -187.5 38.5t-127.5 103.5 q-46 -66 -119.5 -104t-194.5 -38q-158 0 -249.5 43.5t-130.5 119.5t-39 174zM338 301q0 -98 60.5 -139t170.5 -41q104 0 163 41.5t59 138.5v462q0 94 -56.5 134.5t-165.5 40.5q-104 0 -167.5 -38.5t-63.5 -136.5v-462zM979 633h443v145q0 96 -57.5 128t-166.5 32 q-112 0 -165.5 -40t-53.5 -138v-127z" />
<glyph unicode="&#x178;" horiz-adv-x="1318" d="M48 1446h213l400 -702l402 702h207l-509 -878v-568h-201v568zM374 1649v181h206v-181h-206zM738 1649v181h206v-181h-206z" />
<glyph unicode="&#x2c6;" horiz-adv-x="885" d="M100 1155l255 340h175l255 -340h-138l-204 199l-205 -199h-138z" />
<glyph unicode="&#x2dc;" horiz-adv-x="793" d="M100 1227q0 124 48 176.5t138 52.5q69 0 108.5 -26.5t68 -53.5t63.5 -27q31 0 50.5 23.5t19.5 69.5h97q0 -124 -48 -176.5t-138 -52.5q-68 0 -108 27t-68 53.5t-64 26.5q-31 0 -50.5 -23t-19.5 -70h-97z" />
<glyph unicode="&#x2000;" horiz-adv-x="996" />
<glyph unicode="&#x2001;" horiz-adv-x="1992" />
<glyph unicode="&#x2002;" horiz-adv-x="996" />
<glyph unicode="&#x2003;" horiz-adv-x="1992" />
<glyph unicode="&#x2004;" horiz-adv-x="664" />
<glyph unicode="&#x2005;" horiz-adv-x="498" />
<glyph unicode="&#x2006;" horiz-adv-x="332" />
<glyph unicode="&#x2007;" horiz-adv-x="332" />
<glyph unicode="&#x2008;" horiz-adv-x="249" />
<glyph unicode="&#x2009;" horiz-adv-x="398" />
<glyph unicode="&#x200a;" horiz-adv-x="110" />
<glyph unicode="&#x2010;" horiz-adv-x="904" d="M172 499v143h560v-143h-560z" />
<glyph unicode="&#x2011;" horiz-adv-x="904" d="M172 499v143h560v-143h-560z" />
<glyph unicode="&#x2012;" horiz-adv-x="904" d="M172 499v143h560v-143h-560z" />
<glyph unicode="&#x2013;" horiz-adv-x="790" d="M0 499v143h790v-143h-790z" />
<glyph unicode="&#x2014;" horiz-adv-x="1264" d="M0 499v143h1264v-143h-1264z" />
<glyph unicode="&#x2018;" horiz-adv-x="769" d="M256 943v183q0 96 31 173.5t71.5 132.5t69.5 82l81 -44q-23 -27 -55.5 -71t-57 -100.5t-24.5 -122.5h141v-233h-257z" />
<glyph unicode="&#x2019;" horiz-adv-x="769" d="M256 1251v233h257v-183q0 -95 -31 -173t-71.5 -133t-69.5 -82l-81 44q24 28 56 71.5t56.5 100t24.5 122.5h-141z" />
<glyph unicode="&#x201a;" horiz-adv-x="769" d="M256 0v233h257v-183q0 -95 -31 -173t-71.5 -133t-69.5 -82l-81 44q24 28 56 71.5t56.5 100t24.5 122.5h-141z" />
<glyph unicode="&#x201c;" horiz-adv-x="1181" d="M256 943v183q0 96 31 173.5t71.5 132.5t69.5 82l81 -44q-23 -27 -55.5 -71t-57 -100.5t-24.5 -122.5h141v-233h-257zM668 943v183q0 96 31 173.5t71.5 132.5t69.5 82l81 -44q-23 -27 -55.5 -71t-57 -100.5t-24.5 -122.5h141v-233h-257z" />
<glyph unicode="&#x201d;" horiz-adv-x="1181" d="M256 1251v233h257v-183q0 -95 -31 -173t-71.5 -133t-69.5 -82l-81 44q24 28 56 71.5t56.5 100t24.5 122.5h-141zM668 1251v233h257v-183q0 -95 -31 -173t-71.5 -133t-69.5 -82l-81 44q24 28 56 71.5t56.5 100t24.5 122.5h-141z" />
<glyph unicode="&#x201e;" horiz-adv-x="1181" d="M256 0v233h257v-183q0 -95 -31 -173t-71.5 -133t-69.5 -82l-81 44q24 28 56 71.5t56.5 100t24.5 122.5h-141zM668 0v233h257v-183q0 -95 -31 -173t-71.5 -133t-69.5 -82l-81 44q24 28 56 71.5t56.5 100t24.5 122.5h-141z" />
<glyph unicode="&#x2022;" horiz-adv-x="975" d="M180 600q0 147 73 226t235 79q161 0 234 -79t73 -226t-73.5 -226t-234.5 -79t-234 78.5t-73 226.5z" />
<glyph unicode="&#x2026;" horiz-adv-x="1644" d="M186 0v242h256v-242h-256zM694 0v242h256v-242h-256zM1202 0v242h256v-242h-256z" />
<glyph unicode="&#x202f;" horiz-adv-x="398" />
<glyph unicode="&#x2039;" horiz-adv-x="642" d="M96 530l273 450l147 -70l-207 -380l207 -380l-140 -70z" />
<glyph unicode="&#x203a;" horiz-adv-x="642" d="M126 150l207 380l-207 380l140 70l280 -450l-273 -450z" />
<glyph unicode="&#x205f;" horiz-adv-x="498" />
<glyph unicode="&#x20ac;" horiz-adv-x="1460" d="M1 515v124h181v180h-181v124h181q0 114 23 210t84.5 166.5t175 109.5t294.5 39q219 0 336 -52.5t161 -154.5t44 -251v-13l-191 -17v27q0 131 -33.5 195t-110.5 84t-206 20q-127 0 -210 -28.5t-124 -100t-41 -200.5v-34h359v-124h-359v-180h359v-124h-359v-60 q0 -128 42 -196t126.5 -93.5t212.5 -25.5q126 0 201.5 17t109 77.5t33.5 189.5v24h191v-10q0 -109 -20.5 -194.5t-76.5 -144.5t-162.5 -90t-279.5 -31q-181 0 -295 37t-175.5 104.5t-85 160.5t-23.5 206v29h-181z" />
<glyph unicode="&#x2122;" horiz-adv-x="1843" d="M133 1332v114h559v-114h-212v-566h-135v566h-212zM845 766v680h198l184 -413l186 413h196v-680h-127v563l-172 -398h-161l-179 398v-563h-125z" />
<glyph unicode="&#x25fc;" horiz-adv-x="1060" d="M0 0v1060h1060v-1060h-1060z" />
<glyph unicode="&#xfb03;" horiz-adv-x="2037" d="M110 918v142h177v131q0 149 81.5 216.5t244.5 67.5h120l12 -133h-117q-86 0 -119.5 -38t-33.5 -95v-149h504v161q0 149 81.5 216.5t244.5 67.5h119l12 -133h-116q-86 0 -119.5 -38t-33.5 -95v-179h668v-1060h-188v918h-480v-918h-188v918h-504v-918h-188v918h-177z M1644 1297v208h194v-208h-194z" />
<glyph unicode="&#xfb04;" horiz-adv-x="2153" d="M110 918v142h177v131q0 149 81.5 216.5t244.5 67.5h119l12 -133h-116q-86 0 -119.5 -38t-33.5 -95v-149h504v161q0 149 81.5 216.5t244.5 67.5h530v-1149q0 -86 16 -130.5t58.5 -60t120.5 -15.5h33l-22 -158h-54q-116 0 -191.5 27t-112 106t-36.5 233v1014h-327 q-86 0 -119.5 -38t-33.5 -95v-179h257v-142h-257v-918h-188v918h-504v-918h-188v918h-177z" />
</font>
</defs>
</svg>
